<svg width="56" height="56" viewBox="0 0 56 56" fill="none" xmlns="http://www.w3.org/2000/svg">
<path opacity="0.12" d="M25.6667 44.3333C35.976 44.3333 44.3333 35.976 44.3333 25.6667C44.3333 15.3574 35.976 7 25.6667 7C15.3574 7 7 15.3574 7 25.6667C7 35.976 15.3574 44.3333 25.6667 44.3333Z" fill="#1558E0"/>
<path d="M49 49L38.85 38.85M25.6667 14C32.11 14 37.3333 19.2233 37.3333 25.6667M44.3333 25.6667C44.3333 35.976 35.976 44.3333 25.6667 44.3333C15.3574 44.3333 7 35.976 7 25.6667C7 15.3574 15.3574 7 25.6667 7C35.976 7 44.3333 15.3574 44.3333 25.6667Z" stroke="#1558E0" stroke-width="2" stroke-linecap="round" stroke-linejoin="round"/>
</svg>
