<svg width="56" height="56" viewBox="0 0 56 56" fill="none" xmlns="http://www.w3.org/2000/svg">
<g opacity="0.12">
<path d="M15.1666 4.66675L16.997 8.32755C17.6165 9.5665 17.9262 10.186 18.34 10.7228C18.7072 11.1991 19.1342 11.6262 19.6106 11.9933C20.1474 12.4071 20.7669 12.7169 22.0058 13.3363L25.6666 15.1667L22.0058 16.9972C20.7669 17.6166 20.1474 17.9264 19.6106 18.3402C19.1342 18.7073 18.7072 19.1344 18.34 19.6107C17.9262 20.1475 17.6165 20.767 16.997 22.0059L15.1666 25.6667L13.3362 22.0059C12.7167 20.767 12.407 20.1475 11.9932 19.6107C11.626 19.1344 11.199 18.7073 10.7227 18.3402C10.1859 17.9264 9.56638 17.6166 8.32743 16.9972L4.66663 15.1667L8.32743 13.3363C9.56638 12.7169 10.1859 12.4071 10.7227 11.9933C11.199 11.6262 11.626 11.1991 11.9932 10.7228C12.407 10.186 12.7167 9.5665 13.3362 8.32755L15.1666 4.66675Z" fill="#1558E0"/>
<path d="M39.6666 28.0001L41.8859 32.4387C42.5054 33.6776 42.8151 34.2971 43.2289 34.8339C43.5961 35.3102 44.0231 35.7373 44.4995 36.1045C45.0363 36.5182 45.6558 36.828 46.8947 37.4475L51.3333 39.6667L46.8947 41.886C45.6558 42.5055 45.0363 42.8153 44.4995 43.229C44.0231 43.5962 43.5961 44.0233 43.2289 44.4996C42.8151 45.0364 42.5054 45.6559 41.8859 46.8948L39.6666 51.3334L37.4473 46.8948C36.8279 45.6559 36.5181 45.0364 36.1043 44.4996C35.7372 44.0233 35.3101 43.5962 34.8338 43.229C34.297 42.8153 33.6775 42.5055 32.4385 41.886L28 39.6667L32.4385 37.4475C33.6775 36.828 34.297 36.5182 34.8338 36.1045C35.3101 35.7373 35.7372 35.3102 36.1043 34.8339C36.5181 34.2971 36.8279 33.6776 37.4473 32.4387L39.6666 28.0001Z" fill="#1558E0"/>
</g>
<path d="M43.1666 18.6667V7.00008M12.8333 49.0001V37.3334M37.3333 12.8334H49M6.99996 43.1667H18.6666M15.1666 4.66675L13.3362 8.32755C12.7167 9.5665 12.407 10.186 11.9932 10.7228C11.626 11.1991 11.199 11.6262 10.7227 11.9933C10.1859 12.4071 9.56638 12.7169 8.32743 13.3363L4.66663 15.1667L8.32743 16.9972C9.56638 17.6166 10.1859 17.9264 10.7227 18.3402C11.199 18.7073 11.626 19.1344 11.9932 19.6107C12.407 20.1475 12.7167 20.767 13.3362 22.0059L15.1666 25.6667L16.997 22.0059C17.6165 20.767 17.9262 20.1475 18.34 19.6107C18.7072 19.1344 19.1342 18.7073 19.6106 18.3402C20.1474 17.9264 20.7669 17.6166 22.0058 16.9972L25.6666 15.1667L22.0058 13.3363C20.7669 12.7169 20.1474 12.4071 19.6106 11.9933C19.1342 11.6262 18.7072 11.1991 18.34 10.7228C17.9262 10.186 17.6165 9.5665 16.997 8.32755L15.1666 4.66675ZM39.6666 28.0001L37.4473 32.4387C36.8279 33.6776 36.5181 34.2971 36.1043 34.8339C35.7372 35.3102 35.3101 35.7373 34.8338 36.1045C34.297 36.5182 33.6775 36.828 32.4385 37.4475L28 39.6667L32.4385 41.886C33.6775 42.5055 34.297 42.8153 34.8338 43.229C35.3101 43.5962 35.7372 44.0233 36.1043 44.4996C36.5181 45.0364 36.8279 45.6559 37.4473 46.8948L39.6666 51.3334L41.8859 46.8948C42.5054 45.6559 42.8151 45.0364 43.2289 44.4996C43.5961 44.0233 44.0231 43.5962 44.4995 43.229C45.0363 42.8153 45.6558 42.5055 46.8947 41.886L51.3333 39.6667L46.8947 37.4475C45.6558 36.828 45.0363 36.5182 44.4995 36.1045C44.0231 35.7373 43.5961 35.3102 43.2289 34.8339C42.8151 34.2971 42.5054 33.6776 41.8859 32.4387L39.6666 28.0001Z" stroke="#1558E0" stroke-width="2" stroke-linecap="round" stroke-linejoin="round"/>
</svg>
