<svg width="56" height="56" viewBox="0 0 56 56" fill="none" xmlns="http://www.w3.org/2000/svg">
<path opacity="0.12" d="M44.9376 6.39578L38.8065 12.5269C37.8825 13.4509 37.4205 13.9129 37.2474 14.4457C37.0951 14.9143 37.0951 15.4192 37.2474 15.8878C37.4205 16.4206 37.8825 16.8826 38.8065 17.8066L39.3601 18.3602C40.2842 19.2843 40.7462 19.7463 41.279 19.9194C41.7476 20.0716 42.2524 20.0716 42.721 19.9194C43.2538 19.7463 43.7158 19.2843 44.6399 18.3602L50.375 12.6251C50.9927 14.1281 51.3333 15.7743 51.3333 17.5001C51.3333 24.5877 45.5876 30.3334 38.5 30.3334C37.6455 30.3334 36.8105 30.2499 36.0028 30.0906C34.8684 29.8669 34.3013 29.755 33.9574 29.7893C33.5919 29.8257 33.4117 29.8805 33.0879 30.0538C32.7832 30.2169 32.4776 30.5225 31.8664 31.1337L15.1667 47.8334C13.2337 49.7664 10.0997 49.7664 8.16667 47.8334C6.23367 45.9004 6.23367 42.7664 8.16667 40.8334L24.8664 24.1337C25.4776 23.5225 25.7832 23.2169 25.9462 22.9122C26.1196 22.5883 26.1744 22.4082 26.2108 22.0426C26.2451 21.6988 26.1332 21.1316 25.9095 19.9973C25.7502 19.1895 25.6667 18.3546 25.6667 17.5001C25.6667 10.4124 31.4123 4.66675 38.5 4.66675C40.8462 4.66675 43.0453 5.29633 44.9376 6.39578Z" fill="#1558E0"/>
<path d="M14 14.0001L24.5 24.5001M14 14.0001H6.99996L4.66663 7.00008L6.99996 4.66675L14 7.00008V14.0001ZM44.9376 6.39578L38.8065 12.5269C37.8824 13.4509 37.4204 13.9129 37.2473 14.4457C37.0951 14.9143 37.0951 15.4192 37.2473 15.8878C37.4204 16.4206 37.8824 16.8826 38.8065 17.8066L39.3601 18.3602C40.2841 19.2843 40.7462 19.7463 41.2789 19.9194C41.7476 20.0716 42.2524 20.0716 42.721 19.9194C43.2538 19.7463 43.7158 19.2843 44.6398 18.3602L50.375 12.6251C50.9927 14.1281 51.3333 15.7743 51.3333 17.5001C51.3333 24.5877 45.5876 30.3334 38.5 30.3334C37.6455 30.3334 36.8105 30.2499 36.0027 30.0906C34.8684 29.8669 34.3012 29.755 33.9574 29.7893C33.5919 29.8257 33.4117 29.8805 33.0878 30.0538C32.7832 30.2169 32.4776 30.5225 31.8664 31.1337L15.1666 47.8334C13.2336 49.7664 10.0996 49.7664 8.16663 47.8334C6.23363 45.9004 6.23363 42.7664 8.16663 40.8334L24.8664 24.1337C25.4776 23.5225 25.7832 23.2169 25.9462 22.9122C26.1195 22.5883 26.1743 22.4082 26.2108 22.0426C26.245 21.6988 26.1332 21.1316 25.9094 19.9973C25.7501 19.1895 25.6666 18.3546 25.6666 17.5001C25.6666 10.4124 31.4123 4.66675 38.5 4.66675C40.8461 4.66675 43.0453 5.29633 44.9376 6.39578ZM28.0001 35L40.8333 47.8332C42.7663 49.7661 45.9003 49.7661 47.8333 47.8332C49.7663 45.9002 49.7662 42.7661 47.8332 40.8332L37.2757 30.2758C36.5283 30.205 35.7996 30.0702 35.0951 29.8769C34.1873 29.6277 33.1915 29.8085 32.5258 30.4742L28.0001 35Z" stroke="#1558E0" stroke-width="2" stroke-linecap="round" stroke-linejoin="round"/>
</svg>
