<svg width="56" height="56" viewBox="0 0 56 56" fill="none" xmlns="http://www.w3.org/2000/svg">
<path opacity="0.12" d="M27.094 5.16991C27.4249 4.98609 27.5903 4.89418 27.7655 4.85815C27.9206 4.82626 28.0805 4.82626 28.2356 4.85815C28.4108 4.89418 28.5762 4.98609 28.9071 5.16991L46.0634 14.7012C47.0223 15.2339 47.5018 15.5003 47.6609 15.8514C47.7996 16.1574 47.7996 16.5084 47.6609 16.8145C47.5018 17.1656 47.0223 17.432 46.0634 17.9647L28.0006 27.9996L9.93773 17.9647C8.9788 17.432 8.49933 17.1656 8.34022 16.8145C8.20153 16.5084 8.20153 16.1575 8.34022 15.8514C8.49933 15.5003 8.9788 15.2339 9.93773 14.7012L27.094 5.16991Z" fill="#1558E0"/>
<path d="M47.8333 16.9815L27.9999 28M27.9999 28L8.16659 16.9815M27.9999 28L28 50.1668M32.6667 48.7409L29.8131 50.3262C29.1513 50.6938 28.8205 50.8776 28.4701 50.9497C28.1599 51.0135 27.8401 51.0135 27.53 50.9497C27.1796 50.8776 26.8487 50.6938 26.1869 50.3262L8.92027 40.7336C8.2214 40.3453 7.87193 40.1512 7.61748 39.8751C7.39237 39.6308 7.22201 39.3413 7.1178 39.0259C7 38.6693 7 38.2696 7 37.4701V18.5302C7 17.7307 7 17.3309 7.1178 16.9744C7.22201 16.659 7.39237 16.3694 7.61748 16.1252C7.87193 15.849 8.22138 15.6549 8.92027 15.2666L26.1869 5.67404C26.8487 5.30641 27.1796 5.12259 27.53 5.05052C27.8401 4.98674 28.1599 4.98674 28.4701 5.05052C28.8205 5.12259 29.1513 5.30641 29.8131 5.67404L47.0797 15.2666C47.7786 15.6549 48.1281 15.849 48.3825 16.1252C48.6076 16.3694 48.778 16.659 48.8822 16.9744C49 17.3309 49 17.7307 49 18.5302L49 29.1668M17.5 10.5001L38.5 22.1668M37.3333 42.0001L42 46.6668L51.3333 37.3334" stroke="#1558E0" stroke-width="2" stroke-linecap="round" stroke-linejoin="round"/>
</svg>
