<svg width="20" height="20" viewBox="0 0 20 20" fill="none" xmlns="http://www.w3.org/2000/svg">
<path fill-rule="evenodd" clip-rule="evenodd" d="M0.833496 10C0.833496 4.9374 4.93755 0.833344 10.0002 0.833344C15.0628 0.833344 19.1668 4.9374 19.1668 10C19.1668 15.0626 15.0628 19.1667 10.0002 19.1667C4.93755 19.1667 0.833496 15.0626 0.833496 10ZM10.8335 5.00001C10.8335 4.53977 10.4604 4.16668 10.0002 4.16668C9.53992 4.16668 9.16683 4.53977 9.16683 5.00001V10C9.16683 10.3157 9.34516 10.6042 9.62748 10.7454L12.9608 12.412C13.3725 12.6179 13.873 12.451 14.0789 12.0394C14.2847 11.6277 14.1178 11.1271 13.7062 10.9213L10.8335 9.48498V5.00001Z" fill="currentColor"/>
</svg>
