<svg width="20" height="20" viewBox="0 0 20 20" fill="none" xmlns="http://www.w3.org/2000/svg">
<path d="M15.699 3.33335L4.30138 3.33334C3.86212 3.33333 3.4831 3.33332 3.17098 3.35882C2.84152 3.38574 2.51384 3.44517 2.19852 3.60583C1.72812 3.84551 1.34567 4.22796 1.10598 4.69837C0.945322 5.01369 0.885892 5.34137 0.858974 5.67082C0.833473 5.98294 0.833484 6.36191 0.833497 6.80116C0.833497 7.18711 1.14637 7.50001 1.53232 7.50001H18.468C18.854 7.50001 19.1668 7.18715 19.1668 6.80121C19.1668 6.36193 19.1669 5.98296 19.1414 5.67082C19.1144 5.34137 19.055 5.01369 18.8943 4.69837C18.6547 4.22797 18.2722 3.84551 17.8018 3.60583C17.4865 3.44517 17.1588 3.38574 16.8294 3.35882C16.5172 3.33332 16.1382 3.33333 15.699 3.33335Z" fill="currentColor"/>
<path fill-rule="evenodd" clip-rule="evenodd" d="M1.28851 9.25751C1.46677 9.16668 1.70012 9.16668 2.16683 9.16668H17.8335C18.3002 9.16668 18.5336 9.16668 18.7118 9.25751C18.8686 9.3374 18.9961 9.46488 19.076 9.62169C19.1668 9.79995 19.1668 10.0333 19.1668 10.5V13.1988C19.1668 13.6381 19.1669 14.0171 19.1414 14.3292C19.1144 14.6587 19.055 14.9863 18.8943 15.3017C18.6547 15.7721 18.2722 16.1545 17.8018 16.3942C17.4865 16.5549 17.1588 16.6143 16.8294 16.6412C16.5173 16.6667 16.1382 16.6667 15.699 16.6667L4.30124 16.6667C3.86203 16.6667 3.48307 16.6667 3.17098 16.6412C2.84152 16.6143 2.51384 16.5549 2.19852 16.3942C1.72812 16.1545 1.34567 15.7721 1.10598 15.3017C0.945321 14.9863 0.885891 14.6587 0.858974 14.3292C0.833473 14.0171 0.833484 13.6381 0.833497 13.1988V10.5C0.833497 10.0333 0.833497 9.79995 0.924325 9.62169C1.00422 9.46488 1.1317 9.3374 1.28851 9.25751ZM5.00016 11.6667C4.53993 11.6667 4.16683 12.0398 4.16683 12.5C4.16683 12.9602 4.53993 13.3333 5.00016 13.3333H9.16683C9.62707 13.3333 10.0002 12.9602 10.0002 12.5C10.0002 12.0398 9.62707 11.6667 9.16683 11.6667H5.00016Z" fill="currentColor"/>
</svg>
