<svg width="32" height="32" viewBox="0 0 32 32" fill="none" xmlns="http://www.w3.org/2000/svg">
<path d="M12.0003 5.33335L7.21928 5.33335L12.9431 11.0572C13.4638 11.5779 13.4638 12.4221 12.9431 12.9428C12.4224 13.4635 11.5782 13.4635 11.0575 12.9428L5.33366 7.21897L5.33366 12C5.33366 12.7364 4.73671 13.3334 4.00033 13.3334C3.26395 13.3334 2.66699 12.7364 2.66699 12V4.00002C2.66699 3.26364 3.26395 2.66669 4.00033 2.66669H12.0003C12.7367 2.66669 13.3337 3.26364 13.3337 4.00002C13.3337 4.7364 12.7367 5.33335 12.0003 5.33335Z" fill="currentColor"/>
<path d="M18.667 4.00002C18.667 3.26364 19.2639 2.66669 20.0003 2.66669H28.0003C28.7367 2.66669 29.3337 3.26364 29.3337 4.00002V12C29.3337 12.7364 28.7367 13.3334 28.0003 13.3334C27.2639 13.3334 26.667 12.7364 26.667 12V7.21897L20.9431 12.9428C20.4224 13.4635 19.5782 13.4635 19.0575 12.9428C18.5368 12.4221 18.5368 11.5779 19.0575 11.0572L24.7814 5.33335H20.0003C19.2639 5.33335 18.667 4.7364 18.667 4.00002Z" fill="currentColor"/>
<path d="M12.9431 20.9428L7.21928 26.6667H12.0003C12.7367 26.6667 13.3337 27.2636 13.3337 28C13.3337 28.7364 12.7367 29.3334 12.0003 29.3334H4.00033C3.26395 29.3334 2.66699 28.7364 2.66699 28V20C2.66699 19.2636 3.26395 18.6667 4.00033 18.6667C4.73671 18.6667 5.33366 19.2636 5.33366 20L5.33366 24.7811L11.0575 19.0572C11.5782 18.5365 12.4224 18.5365 12.9431 19.0572C13.4638 19.5779 13.4638 20.4221 12.9431 20.9428Z" fill="currentColor"/>
<path d="M26.667 24.7811V20C26.667 19.2636 27.2639 18.6667 28.0003 18.6667C28.7367 18.6667 29.3337 19.2636 29.3337 20V28C29.3337 28.7364 28.7367 29.3334 28.0003 29.3334H20.0003C19.2639 29.3334 18.667 28.7364 18.667 28C18.667 27.2636 19.2639 26.6667 20.0003 26.6667H24.7814L19.0575 20.9428C18.5368 20.4221 18.5368 19.5779 19.0575 19.0572C19.5782 18.5365 20.4224 18.5365 20.9431 19.0572L26.667 24.7811Z" fill="currentColor"/>
</svg>
