<svg width="22" height="22" viewBox="0 0 22 22" fill="none" xmlns="http://www.w3.org/2000/svg">
<path fill-rule="evenodd" clip-rule="evenodd" d="M10.9998 3.78713C10.9815 3.75254 10.9627 3.7179 10.9437 3.68323C10.2598 2.43984 8.98876 0.916656 6.87484 0.916656C6.02393 0.916656 5.20788 1.25468 4.6062 1.85636C4.00452 2.45803 3.6665 3.27409 3.6665 4.12499C3.6665 4.60706 3.775 5.07794 3.97846 5.505C3.80129 5.50888 3.63751 5.51578 3.48773 5.52801C3.12533 5.55762 2.76488 5.623 2.41803 5.79973C1.90059 6.06338 1.47989 6.48407 1.21624 7.00152C1.03951 7.34837 0.974139 7.70882 0.94453 8.07122C0.916478 8.41455 0.91649 8.83141 0.916505 9.31459V11.1833C0.916505 11.44 0.916505 11.5684 0.96646 11.6664C1.0104 11.7526 1.08052 11.8228 1.16676 11.8667C1.2648 11.9167 1.39315 11.9167 1.64984 11.9167H10.0832V8.06666C10.0832 7.80997 10.0832 7.68162 10.1331 7.58358C10.1771 7.49734 10.2472 7.42722 10.3334 7.38328C10.4315 7.33332 10.5598 7.33332 10.8165 7.33332H11.1832C11.4399 7.33332 11.5682 7.33332 11.6663 7.38328C11.7525 7.42722 11.8226 7.49734 11.8665 7.58358C11.9165 7.68162 11.9165 7.80997 11.9165 8.06666V11.9167H20.3498C20.6065 11.9167 20.7349 11.9167 20.8329 11.8667C20.9192 11.8228 20.9893 11.7526 21.0332 11.6664C21.0832 11.5684 21.0832 11.44 21.0832 11.1833V9.31464C21.0832 8.83143 21.0832 8.41457 21.0551 8.07122C21.0255 7.70882 20.9602 7.34837 20.7834 7.00152C20.5198 6.48408 20.0991 6.06338 19.5816 5.79973C19.2348 5.623 18.8743 5.55763 18.5119 5.52802C18.3622 5.51578 18.1984 5.50888 18.0212 5.505C18.2247 5.07794 18.3332 4.60706 18.3332 4.12499C18.3332 3.27409 17.9952 2.45804 17.3935 1.85636C16.7918 1.25468 15.9757 0.916656 15.1248 0.916656C13.0109 0.916656 11.7399 2.43984 11.056 3.68323C11.037 3.7179 11.0182 3.75254 10.9998 3.78713ZM5.90257 3.15272C6.16043 2.89486 6.51016 2.74999 6.87484 2.74999C7.96925 2.74999 8.76071 3.51847 9.33726 4.56675C9.51246 4.88529 9.65412 5.20722 9.76602 5.49999H6.87484C6.51016 5.49999 6.16043 5.35512 5.90257 5.09726C5.6447 4.8394 5.49984 4.48966 5.49984 4.12499C5.49984 3.76032 5.6447 3.41058 5.90257 3.15272ZM15.1248 5.49999H12.2337C12.3456 5.20722 12.4872 4.88529 12.6624 4.56675C13.239 3.51847 14.0304 2.74999 15.1248 2.74999C15.4895 2.74999 15.8393 2.89486 16.0971 3.15272C16.355 3.41058 16.4998 3.76032 16.4998 4.12499C16.4998 4.48966 16.355 4.8394 16.0971 5.09726C15.8393 5.35512 15.4895 5.49999 15.1248 5.49999Z" fill="currentColor"/>
<path d="M1.64984 13.75C1.39315 13.75 1.2648 13.75 1.16676 13.7999C1.08052 13.8439 1.0104 13.914 0.96646 14.0002C0.916505 14.0983 0.916505 14.2266 0.916505 14.4833V17.2687C0.91649 17.7518 0.916478 18.1688 0.94453 18.5121C0.974139 18.8745 1.03951 19.235 1.21624 19.5818C1.47989 20.0992 1.90059 20.5199 2.41803 20.7836C2.76488 20.9603 3.12533 21.0257 3.48773 21.0553C3.83108 21.0834 4.24794 21.0833 4.73116 21.0833L17.2685 21.0833C17.7517 21.0833 18.1686 21.0834 18.5119 21.0553C18.8743 21.0257 19.2348 20.9603 19.5816 20.7836C20.0991 20.5199 20.5198 20.0992 20.7834 19.5818C20.9602 19.235 21.0255 18.8745 21.0551 18.5121C21.0832 18.1688 21.0832 17.7519 21.0832 17.2687V14.4833C21.0832 14.2266 21.0832 14.0983 21.0332 14.0002C20.9893 13.914 20.9192 13.8439 20.8329 13.7999C20.7349 13.75 20.6065 13.75 20.3498 13.75H11.9165V18.5167C11.9165 18.7733 11.9165 18.9017 11.8665 18.9997C11.8226 19.086 11.7525 19.1561 11.6663 19.2C11.5682 19.25 11.4399 19.25 11.1832 19.25H10.8165C10.5598 19.25 10.4315 19.25 10.3334 19.2C10.2472 19.1561 10.1771 19.086 10.1331 18.9997C10.0832 18.9017 10.0832 18.7733 10.0832 18.5167V13.75H1.64984Z" fill="currentColor"/>
</svg>
