<svg width="20" height="21" viewBox="0 0 20 21" fill="none" xmlns="http://www.w3.org/2000/svg">
<path d="M17.996 1.59675C17.6662 1.48657 17.3591 1.56625 17.2065 1.61059C17.0401 1.65891 16.8418 1.73633 16.6429 1.81399L2.51199 7.32849C2.28963 7.41524 2.07426 7.49925 1.90803 7.58144C1.7644 7.65246 1.45911 7.81053 1.28871 8.13854C1.10079 8.50026 1.10104 8.93089 1.28939 9.29238C1.46018 9.62019 1.76565 9.7779 1.90936 9.84875C2.07568 9.93075 2.29112 10.0145 2.51357 10.101L8.10632 12.2759L10.2812 17.8686C10.3677 18.0911 10.4515 18.3065 10.5335 18.4729C10.6043 18.6166 10.7621 18.9221 11.0899 19.0929C11.4514 19.2812 11.882 19.2815 12.2437 19.0935C12.5717 18.9231 12.7298 18.6178 12.8008 18.4742C12.883 18.308 12.967 18.0926 13.0537 17.8703L18.5683 3.73934C18.6459 3.54041 18.7233 3.34215 18.7717 3.17579C18.816 3.02313 18.8957 2.71608 18.7855 2.38627C18.661 2.01365 18.3686 1.72123 17.996 1.59675Z" fill="currentColor"/>
</svg>
