<svg width="32" height="32" viewBox="0 0 32 32" fill="none" xmlns="http://www.w3.org/2000/svg">
<path fill-rule="evenodd" clip-rule="evenodd" d="M22.8823 2.66669H23.7851C24.4879 2.66666 25.0943 2.66664 25.5937 2.70745C26.1208 2.75052 26.6451 2.8456 27.1496 3.10266C27.9023 3.48616 28.5142 4.09808 28.8977 4.85073C29.1547 5.35523 29.2498 5.87953 29.2929 6.40665C29.3337 6.90609 29.3337 7.51245 29.3337 8.21533V23.7847C29.3337 24.4876 29.3337 25.094 29.2929 25.5934C29.2498 26.1205 29.1547 26.6448 28.8977 27.1493C28.5142 27.902 27.9023 28.5139 27.1496 28.8974C26.6451 29.1544 26.1208 29.2495 25.5937 29.2926C25.0943 29.3334 24.4879 29.3334 23.7851 29.3334H22.8822C22.1794 29.3334 21.573 29.3334 21.0736 29.2926C20.5465 29.2495 20.0222 29.1544 19.5177 28.8974C18.7651 28.5139 18.1531 27.902 17.7696 27.1493C17.5126 26.6448 17.4175 26.1205 17.3744 25.5934C17.3336 25.094 17.3336 24.4876 17.3337 23.7847V8.2153C17.3336 7.51243 17.3336 6.90608 17.3744 6.40665C17.4175 5.87953 17.5126 5.35523 17.7696 4.85073C18.1531 4.09808 18.7651 3.48616 19.5177 3.10266C20.0222 2.8456 20.5465 2.75052 21.0736 2.70745C21.5731 2.66664 22.1794 2.66666 22.8823 2.66669Z" fill="currentColor"/>
<path fill-rule="evenodd" clip-rule="evenodd" d="M8.2156 2.66669H9.11839C9.82125 2.66666 10.4276 2.66664 10.927 2.70745C11.4542 2.75052 11.9785 2.8456 12.483 3.10266C13.2356 3.48616 13.8475 4.09808 14.231 4.85073C14.4881 5.35523 14.5832 5.87953 14.6262 6.40665C14.667 6.90609 14.667 7.51245 14.667 8.21533V23.7847C14.667 24.4876 14.667 25.094 14.6262 25.5934C14.5832 26.1205 14.4881 26.6448 14.231 27.1493C13.8475 27.902 13.2356 28.5139 12.483 28.8974C11.9785 29.1544 11.4542 29.2495 10.927 29.2926C10.4276 29.3334 9.82127 29.3334 9.11842 29.3334H8.21557C7.51272 29.3334 6.90638 29.3334 6.40696 29.2926C5.87983 29.2495 5.35554 29.1544 4.85103 28.8974C4.09838 28.5139 3.48646 27.902 3.10297 27.1493C2.84591 26.6448 2.75082 26.1205 2.70775 25.5934C2.66695 25.094 2.66697 24.4876 2.66699 23.7847V8.2153C2.66697 7.51243 2.66695 6.90608 2.70775 6.40665C2.75082 5.87953 2.84591 5.35523 3.10297 4.85073C3.48646 4.09808 4.09838 3.48616 4.85103 3.10266C5.35554 2.8456 5.87983 2.75052 6.40696 2.70745C6.90639 2.66664 7.51274 2.66666 8.2156 2.66669Z" fill="currentColor"/>
</svg>
