<svg width="20" height="20" viewBox="0 0 20 20" fill="none" xmlns="http://www.w3.org/2000/svg">
<path fill-rule="evenodd" clip-rule="evenodd" d="M10.0002 0.833336C4.93755 0.833336 0.833496 4.93739 0.833496 10C0.833496 15.0626 4.93755 19.1667 10.0002 19.1667C15.0628 19.1667 19.1668 15.0626 19.1668 10C19.1668 4.93739 15.0628 0.833336 10.0002 0.833336ZM7.99995 6.7634C7.91683 6.87443 7.91683 7.0733 7.91683 7.47103V12.5288C7.91683 12.9265 7.91683 13.1254 7.99995 13.2364C8.07238 13.3332 8.18326 13.3937 8.30381 13.4023C8.44215 13.4122 8.60943 13.3047 8.94399 13.0896L12.8778 10.5607C13.1681 10.3741 13.3133 10.2808 13.3634 10.1621C13.4073 10.0584 13.4073 9.94143 13.3634 9.83775C13.3133 9.71909 13.1681 9.62577 12.8778 9.43914L8.944 6.91025C8.60943 6.69517 8.44215 6.58763 8.30381 6.59751C8.18326 6.60612 8.07238 6.66665 7.99995 6.7634Z" fill="currentColor"/>
</svg>
