<svg width="20" height="20" viewBox="0 0 20 20" fill="none" xmlns="http://www.w3.org/2000/svg">
<path fill-rule="evenodd" clip-rule="evenodd" d="M6.67203 2.33527C6.682 2.34192 6.69199 2.34858 6.70202 2.35526L15.4926 8.21567C15.747 8.38521 15.9828 8.5424 16.1639 8.68847C16.353 8.84092 16.5758 9.05231 16.7041 9.36157C16.8736 9.77032 16.8736 10.2297 16.7041 10.6385C16.5758 10.9477 16.353 11.1591 16.1639 11.3116C15.9828 11.4576 15.747 11.6148 15.4927 11.7843L6.67206 17.6647C6.36116 17.872 6.08159 18.0584 5.84437 18.187C5.60698 18.3157 5.28114 18.4627 4.90083 18.44C4.41437 18.4109 3.96499 18.1704 3.67098 17.7818C3.44113 17.4779 3.3827 17.1253 3.35807 16.8564C3.33345 16.5877 3.33347 16.2517 3.3335 15.878L3.3335 4.15804C3.3335 4.14599 3.3335 4.13398 3.3335 4.122C3.33347 3.74834 3.33345 3.41234 3.35807 3.14366C3.3827 2.87478 3.44113 2.52211 3.67098 2.21827C3.96499 1.82962 4.41437 1.58912 4.90083 1.56008C5.28114 1.53737 5.60698 1.68438 5.84437 1.81303C6.08159 1.94158 6.36114 2.12798 6.67203 2.33527Z" fill="currentColor"/>
</svg>
