<svg width="23" height="22" viewBox="0 0 23 22" fill="none" xmlns="http://www.w3.org/2000/svg">
<path d="M10.1244 12.375L19.7494 2.75004M10.2413 12.6758L12.6505 18.8706C12.8627 19.4163 12.9688 19.6892 13.1217 19.7689C13.2542 19.8379 13.4121 19.838 13.5448 19.7691C13.6978 19.6896 13.8042 19.4169 14.0171 18.8714L20.0582 3.39097C20.2504 2.89855 20.3465 2.65234 20.2939 2.49502C20.2483 2.35839 20.141 2.25117 20.0044 2.20553C19.8471 2.15297 19.6009 2.24905 19.1085 2.44121L3.62803 8.48236C3.08255 8.69523 2.80981 8.80167 2.73032 8.95466C2.66142 9.08729 2.66151 9.24519 2.73057 9.37774C2.81024 9.53064 3.0831 9.63675 3.62884 9.84898L9.82367 12.2581C9.93445 12.3012 9.98984 12.3227 10.0365 12.356C10.0778 12.3855 10.114 12.4216 10.1435 12.463C10.1767 12.5096 10.1983 12.565 10.2413 12.6758Z" stroke="currentColor" stroke-width="2" stroke-linecap="round" stroke-linejoin="round"/>
</svg>
