<svg width="20" height="20" viewBox="0 0 20 20" fill="none" xmlns="http://www.w3.org/2000/svg">
<path fill-rule="evenodd" clip-rule="evenodd" d="M9.76186 0.907025C9.91995 0.884182 10.0805 0.884182 10.2386 0.907025C10.4208 0.933352 10.5903 0.997397 10.7249 1.04825L10.761 1.06185L15.338 2.77811C15.8528 2.97032 16.305 3.13912 16.6531 3.44597C16.9577 3.71441 17.1924 4.05298 17.3368 4.43244C17.5018 4.8662 17.5011 5.34879 17.5003 5.89833L17.5002 9.99989C17.5002 12.3554 16.2191 14.3192 14.8343 15.7619C13.4403 17.2142 11.8452 18.24 11.0018 18.7321L10.9677 18.7521C10.8137 18.8425 10.614 18.9598 10.3497 19.0165C10.1335 19.0628 9.86697 19.0628 9.65075 19.0165C9.38649 18.9598 9.18671 18.8425 9.0328 18.7521L8.99864 18.7321C8.15522 18.24 6.56019 17.2142 5.1661 15.7619C3.7813 14.3192 2.50022 12.3554 2.50022 9.99989L2.50011 5.89833C2.49931 5.3488 2.49861 4.8662 2.66367 4.43244C2.80806 4.05298 3.0427 3.71441 3.34729 3.44597C3.69548 3.13912 4.1476 2.97032 4.66242 2.77811L9.23945 1.06185L9.27552 1.04825C9.41014 0.997398 9.57967 0.933352 9.76186 0.907025ZM13.5061 8.08926C13.8316 7.76382 13.8316 7.23618 13.5061 6.91074C13.1807 6.58531 12.6531 6.58531 12.3276 6.91074L9.16687 10.0715L8.08946 8.99408C7.76402 8.66864 7.23638 8.66864 6.91095 8.99408C6.58551 9.31951 6.58551 9.84715 6.91095 10.1726L8.57761 11.8393C8.90305 12.1647 9.43069 12.1647 9.75613 11.8393L13.5061 8.08926Z" fill="currentColor"/>
</svg>
