<svg width="40" height="41" viewBox="0 0 40 41" fill="none" xmlns="http://www.w3.org/2000/svg">
<g clip-path="url(#clip0_15004_491)">
<path d="M20 0.382812C14.6969 0.382812 9.60625 2.49125 5.85938 6.24063C2.10938 9.99 0 15.0806 0 20.3828C0 25.685 2.10938 30.7756 5.85938 34.525C9.60625 38.2744 14.6969 40.3828 20 40.3828C25.3031 40.3828 30.3937 38.2744 34.1406 34.525C37.8906 30.7756 40 25.685 40 20.3828C40 15.0806 37.8906 9.99 34.1406 6.24063C30.3937 2.49125 25.3031 0.382812 20 0.382812Z" fill="url(#paint0_linear_15004_491)"/>
<path d="M8.14422 19.2627C13.9755 16.7227 17.863 15.048 19.8067 14.2389C25.363 11.9286 26.5161 11.5274 27.2692 11.5138C27.4348 11.5111 27.8036 11.552 28.0442 11.7467C28.2442 11.9108 28.3005 12.1327 28.3286 12.2883C28.3536 12.4439 28.388 12.7986 28.3598 13.0755C28.0598 16.238 26.7567 23.9124 26.0942 27.4545C25.8161 28.9534 25.263 29.4559 24.7286 29.5049C23.5661 29.6118 22.6848 28.7374 21.5598 28.0002C19.8005 26.8461 18.8067 26.128 17.0973 25.002C15.1223 23.7008 16.4036 22.9855 17.5286 21.8167C17.8223 21.5108 22.9411 16.8561 23.038 16.4339C23.0505 16.3811 23.063 16.1842 22.9442 16.0805C22.8286 15.9764 22.6567 16.012 22.5317 16.0402C22.3536 16.0802 19.5442 17.9389 14.0942 21.6161C13.2973 22.1642 12.5755 22.4314 11.9255 22.4174C11.213 22.402 9.83797 22.0136 8.81609 21.6817C7.56609 21.2745 6.56922 21.0592 6.65672 20.3677C6.70047 20.0077 7.19734 19.6392 8.14422 19.2627Z" fill="white"/>
</g>
<defs>
<linearGradient id="paint0_linear_15004_491" x1="2000" y1="0.382813" x2="2000" y2="4000.38" gradientUnits="userSpaceOnUse">
<stop stop-color="#2AABEE"/>
<stop offset="1" stop-color="#229ED9"/>
</linearGradient>
<clipPath id="clip0_15004_491">
<rect width="40" height="40" fill="white" transform="translate(0 0.382812)"/>
</clipPath>
</defs>
</svg>
