<svg width="40" height="41" viewBox="0 0 40 41" fill="none" xmlns="http://www.w3.org/2000/svg">
<g clip-path="url(#clip0_15004_497)">
<path d="M20 0.382812C14.6969 0.382812 9.60625 2.49125 5.85938 6.24063C2.10938 9.99 0 15.0806 0 20.3828C0 25.685 2.10938 30.7756 5.85938 34.525C9.60625 38.2744 14.6969 40.3828 20 40.3828C25.3031 40.3828 30.3937 38.2744 34.1406 34.525C37.8906 30.7756 40 25.685 40 20.3828C40 15.0806 37.8906 9.99 34.1406 6.24063C30.3937 2.49125 25.3031 0.382812 20 0.382812Z" fill="#0077FF"/>
<path d="M21.3576 28.5646C13.051 28.5646 8.00995 22.8014 7.81396 13.2246H12.021C12.1522 20.2595 15.3528 23.2449 17.8063 23.8535V13.2246H21.8394V19.2943C24.206 19.032 26.6817 16.2705 27.5157 13.2246H31.4811C30.846 16.9719 28.1508 19.7334 26.244 20.8725C28.1508 21.7934 31.2187 24.2042 32.4021 28.5646H28.0418C27.1208 25.6498 24.8632 23.3923 21.8394 23.0858V28.5646H21.3576Z" fill="white"/>
</g>
<defs>
<clipPath id="clip0_15004_497">
<rect width="40" height="40" fill="white" transform="translate(0 0.382812)"/>
</clipPath>
</defs>
</svg>
