<svg width="40" height="41" viewBox="0 0 40 41" fill="none" xmlns="http://www.w3.org/2000/svg">
<g clip-path="url(#clip0_15004_494)">
<path d="M18.1096 40.3139C15.7943 40.1645 13.3878 39.4835 11.2468 38.3707C9.22197 37.3077 9.20538 37.3077 8.86514 37.3991C8.69917 37.4406 8.12658 37.5984 7.60378 37.7479C6.16815 38.1465 4.80721 38.4953 4.20142 38.6198C3.90268 38.6863 3.44627 38.8108 3.18902 38.9022C2.92347 39.0018 2.61643 39.0766 2.50855 39.0766C2.39237 39.0766 2.2098 39.1098 2.09362 39.1596C1.91106 39.2261 1.86127 39.2094 1.74509 39.0351C1.62891 38.8524 1.62891 38.7859 1.78658 38.188C1.87786 37.8309 1.97745 37.4489 2.01064 37.3326C2.09362 36.9838 2.42556 35.7963 2.91517 34.069C3.55415 31.8351 3.55415 31.8101 2.83218 30.606C1.63721 28.588 0.749279 26.3707 0.334357 24.3776C-0.080564 22.3679 -0.113758 19.1209 0.259672 17.1112C0.458834 16.015 1.1642 13.5153 1.52103 12.635C2.43386 10.3845 3.8197 8.325 5.69514 6.43157C7.32993 4.78728 9.17218 3.45856 11.2053 2.45371C13.1388 1.4987 14.5413 1.04195 16.8565 0.618418C18.093 0.394196 20.7568 0.311151 22.0347 0.452328C23.5368 0.626722 26.1342 1.22465 26.9723 1.58174C27.1134 1.63987 27.5283 1.81427 27.8934 1.97205C29.3457 2.56998 31.0385 3.60804 32.4576 4.75406C36.9387 8.36652 39.6025 13.5817 39.9594 19.4364C40.2249 23.7631 39.1876 27.7658 36.8972 31.1956C34.7147 34.4593 32.1007 36.8094 28.8892 38.3707C25.4122 40.0648 22.4829 40.588 18.1096 40.3139Z" fill="#00D16B"/>
<path d="M24.673 29.6442C24.5964 29.6302 24.3527 29.5676 24.1299 29.5049C23.914 29.4492 23.5588 29.3726 23.3499 29.3378C23.141 29.3029 22.8695 29.2263 22.7441 29.1706C22.6188 29.1149 22.3611 29.0314 22.1661 28.9826C21.9781 28.9408 21.7553 28.8642 21.6787 28.8155C21.6021 28.7737 21.4141 28.6901 21.2609 28.6414C21.1077 28.5927 20.8431 28.4812 20.669 28.3907C20.4949 28.3002 20.3069 28.2236 20.2372 28.2236C20.1746 28.2236 20.0701 28.1748 20.0074 28.1122C19.9448 28.0495 19.7916 27.959 19.6732 27.9172C19.4852 27.8476 19.0256 27.6108 18.6495 27.381C18.5938 27.3462 18.4337 27.2557 18.2944 27.186C18.1621 27.1094 18.0089 26.998 17.9601 26.9423C17.9044 26.8796 17.8209 26.8309 17.7721 26.8309C17.7164 26.8309 17.6189 26.7752 17.5493 26.7125C17.4797 26.6429 17.2359 26.4618 17.0061 26.3086C16.3446 25.8699 15.8432 25.4242 14.4714 24.0454C12.9464 22.5274 12.2222 21.6848 11.6094 20.7378C11.5119 20.5846 11.3726 20.3687 11.296 20.2573C10.92 19.7002 10.2236 18.3841 10.2236 18.2378C10.2236 18.1821 10.1749 18.1055 10.1192 18.0568C10.0635 18.008 9.99382 17.8618 9.97293 17.7156C9.94508 17.5763 9.84759 17.2629 9.7501 17.0122C9.5969 16.6014 9.57601 16.4621 9.57601 15.4803C9.56904 14.4357 9.58297 14.38 9.79884 13.7394C9.92418 13.3773 10.0704 13.0291 10.1261 12.9664C10.1818 12.9107 10.2236 12.8341 10.2236 12.7993C10.2236 12.6879 10.8573 11.7896 11.1567 11.4762C11.4144 11.2046 11.6024 11.0723 12.1734 10.7659C12.4241 10.6336 13.8586 10.6406 14.1163 10.7799C14.3809 10.9122 14.6316 11.2186 14.8126 11.6294C14.9031 11.8105 15.0424 12.1238 15.1329 12.3118C15.2235 12.5068 15.3767 12.8341 15.4741 13.043C15.5716 13.2519 15.6552 13.4678 15.6552 13.5165C15.6552 13.5653 15.7179 13.7254 15.7945 13.8647C16.1496 14.5332 16.3098 15.0276 16.3376 15.6056C16.3585 16.1836 16.3585 16.1905 16.0939 16.5805C15.9477 16.7964 15.7736 17.0262 15.7109 17.0958C15.6413 17.1654 15.5856 17.242 15.5856 17.2769C15.5856 17.3047 15.4463 17.4788 15.2722 17.6599C14.6107 18.3493 14.6455 18.8088 15.4463 19.9718C16.1914 21.0442 17.1733 22.1026 18.1551 22.8965C18.4337 23.1263 18.7401 23.3839 18.8376 23.4744C18.9281 23.558 19.0325 23.6276 19.0604 23.6276C19.0882 23.6276 19.1718 23.6903 19.2345 23.7599C19.3041 23.8365 19.4573 23.934 19.5757 23.9828C19.701 24.0315 19.8473 24.1081 19.903 24.1569C20.0492 24.2752 20.8779 24.714 21.0868 24.7766C21.1843 24.8045 21.3027 24.8602 21.3514 24.902C21.4071 24.9437 21.6508 25.0482 21.9015 25.1387C22.3263 25.285 22.3611 25.285 22.5352 25.1805C22.7441 25.0552 23.6354 24.1429 24.095 23.5859C24.5407 23.0566 24.7775 22.9104 25.2231 22.9174C25.5017 22.9174 25.6967 22.9731 25.9961 23.1332C26.2189 23.2516 26.4348 23.3491 26.4835 23.3491C26.5323 23.3491 26.6089 23.3978 26.6576 23.4535C26.7064 23.5162 26.8805 23.5928 27.0476 23.6346C27.2147 23.6764 27.3888 23.753 27.4306 23.8087C27.4724 23.8644 27.6395 23.941 27.7997 23.9828C27.9529 24.0246 28.1618 24.1151 28.2593 24.1847C28.3567 24.2544 28.5308 24.331 28.6562 24.3518C28.7815 24.3797 28.9487 24.4563 29.0392 24.5259C29.1297 24.5956 29.2968 24.6722 29.4082 24.7C29.5266 24.7279 29.7007 24.8323 29.8121 24.9368C29.9793 25.0969 30.0001 25.1666 30.0001 25.5774C30.0001 25.8908 29.9444 26.1972 29.8261 26.5384C29.7286 26.81 29.652 27.0816 29.652 27.1373C29.652 27.3044 29.074 27.959 28.5308 28.4046C27.5908 29.1776 26.5393 29.6024 25.446 29.6511C25.0978 29.665 24.7496 29.665 24.673 29.6442Z" fill="white"/>
</g>
<defs>
<clipPath id="clip0_15004_494">
<rect width="40" height="40" fill="white" transform="translate(0 0.382812)"/>
</clipPath>
</defs>
</svg>
