<svg width="32" height="32" viewBox="0 0 32 32" fill="none" xmlns="http://www.w3.org/2000/svg">
<path opacity="0.12" d="M4 9.59998C4 8.10651 4 7.35977 4.29065 6.78934C4.54631 6.28757 4.95426 5.87962 5.45603 5.62396C6.02646 5.33331 6.77319 5.33331 8.26667 5.33331H23.7333C25.2268 5.33331 25.9735 5.33331 26.544 5.62396C27.0457 5.87962 27.4537 6.28757 27.7094 6.78934C28 7.35977 28 8.10651 28 9.59998V21.3333H20.8837C20.5575 21.3333 20.3945 21.3333 20.241 21.3702C20.105 21.4028 19.9749 21.4567 19.8556 21.5298C19.7211 21.6122 19.6058 21.7275 19.3752 21.9582L19.2915 22.0418C19.0609 22.2724 18.9456 22.3877 18.811 22.4702C18.6918 22.5433 18.5617 22.5971 18.4256 22.6298C18.2722 22.6666 18.1091 22.6666 17.783 22.6666H14.217C13.8909 22.6666 13.7278 22.6666 13.5744 22.6298C13.4383 22.5971 13.3083 22.5433 13.189 22.4702C13.0544 22.3877 12.9391 22.2724 12.7085 22.0418L12.6248 21.9582C12.3942 21.7275 12.2789 21.6122 12.1444 21.5298C12.0251 21.4567 11.895 21.4028 11.759 21.3702C11.6055 21.3333 11.4425 21.3333 11.1163 21.3333H4V9.59998Z" fill="#1558E0"/>
<path d="M4.00002 21.3333V9.59998C4.00002 8.10651 4.00002 7.35977 4.29067 6.78934C4.54633 6.28757 4.95428 5.87962 5.45605 5.62396C6.02648 5.33331 6.77321 5.33331 8.26669 5.33331H23.7334C25.2268 5.33331 25.9736 5.33331 26.544 5.62396C27.0458 5.87962 27.4537 6.28757 27.7094 6.78934C28 7.35977 28 8.10651 28 9.59998V21.3333H20.8837C20.5576 21.3333 20.3945 21.3333 20.241 21.3702C20.105 21.4028 19.9749 21.4567 19.8556 21.5298C19.7211 21.6122 19.6058 21.7275 19.3752 21.9582L19.2915 22.0418C19.0609 22.2724 18.9456 22.3877 18.8111 22.4702C18.6918 22.5433 18.5617 22.5971 18.4257 22.6298C18.2722 22.6666 18.1092 22.6666 17.783 22.6666H14.217C13.8909 22.6666 13.7278 22.6666 13.5744 22.6298C13.4383 22.5971 13.3083 22.5433 13.189 22.4702C13.0544 22.3877 12.9391 22.2724 12.7085 22.0418L12.6249 21.9582C12.3943 21.7275 12.279 21.6122 12.1444 21.5298C12.0251 21.4567 11.895 21.4028 11.759 21.3702C11.6055 21.3333 11.4425 21.3333 11.1164 21.3333H4.00002ZM4.00002 21.3333C3.26364 21.3333 2.66669 21.9303 2.66669 22.6666V23.1111C2.66669 23.9377 2.66669 24.3511 2.75755 24.6902C3.00413 25.6104 3.72292 26.3292 4.64317 26.5758C4.98228 26.6666 5.3956 26.6666 6.22224 26.6666H25.7778C26.6044 26.6666 27.0178 26.6666 27.3569 26.5758C28.2771 26.3292 28.9959 25.6104 29.2425 24.6902C29.3334 24.3511 29.3334 23.9377 29.3334 23.1111C29.3334 22.6978 29.3334 22.4911 29.2879 22.3216C29.1646 21.8614 28.8052 21.502 28.3451 21.3787C28.1756 21.3333 27.9689 21.3333 27.5556 21.3333H26.6667" stroke="#1558E0" stroke-width="2" stroke-linecap="round" stroke-linejoin="round"/>
</svg>
