<svg width="32" height="32" viewBox="0 0 32 32" fill="none" xmlns="http://www.w3.org/2000/svg">
<path opacity="0.12" d="M20.8418 10.1752C20.3138 9.64716 20.0498 9.38315 19.9508 9.07871C19.8638 8.81092 19.8638 8.52246 19.9508 8.25466C20.0498 7.95023 20.3138 7.68621 20.8418 7.15819L24.6263 3.3737C23.622 2.91952 22.5072 2.66669 21.3333 2.66669C16.915 2.66669 13.3333 6.24841 13.3333 10.6667C13.3333 11.3214 13.4119 11.9578 13.5603 12.5668C13.7192 13.219 13.7986 13.5451 13.7845 13.7511C13.7698 13.9668 13.7376 14.0816 13.6381 14.2735C13.5431 14.4569 13.3611 14.6389 12.997 15.0029L4.66662 23.3334C3.56205 24.4379 3.56205 26.2288 4.66662 27.3334C5.77119 28.4379 7.56205 28.4379 8.66662 27.3334L16.997 19.0029C17.3611 18.6389 17.5431 18.4569 17.7265 18.3618C17.9184 18.2624 18.0332 18.2302 18.2489 18.2155C18.4549 18.2014 18.781 18.2808 19.4332 18.4397C20.0422 18.588 20.6786 18.6667 21.3333 18.6667C25.7516 18.6667 29.3333 15.085 29.3333 10.6667C29.3333 9.49281 29.0805 8.37799 28.6263 7.3737L24.8418 11.1582C24.3138 11.6862 24.0498 11.9502 23.7453 12.0491C23.4775 12.1362 23.1891 12.1362 22.9213 12.0491C22.6168 11.9502 22.3528 11.6862 21.8248 11.1582L20.8418 10.1752Z" fill="#1558E0"/>
<path d="M20.8418 10.1752C20.3138 9.64716 20.0498 9.38315 19.9509 9.07871C19.8639 8.81092 19.8639 8.52246 19.9509 8.25466C20.0498 7.95023 20.3138 7.68621 20.8418 7.15819L24.6263 3.3737C23.6221 2.91952 22.5072 2.66669 21.3334 2.66669C16.9151 2.66669 13.3334 6.24841 13.3334 10.6667C13.3334 11.3214 13.412 11.9578 13.5604 12.5668C13.7192 13.219 13.7987 13.5451 13.7846 13.7511C13.7698 13.9668 13.7377 14.0816 13.6382 14.2735C13.5432 14.4569 13.3612 14.6389 12.9971 15.0029L4.66668 23.3334C3.56211 24.4379 3.56211 26.2288 4.66668 27.3334C5.77125 28.4379 7.56212 28.4379 8.66668 27.3334L16.9971 19.0029C17.3612 18.6389 17.5432 18.4569 17.7265 18.3618C17.9185 18.2624 18.0332 18.2302 18.2489 18.2155C18.4549 18.2014 18.781 18.2808 19.4332 18.4397C20.0423 18.588 20.6786 18.6667 21.3334 18.6667C25.7516 18.6667 29.3334 15.085 29.3334 10.6667C29.3334 9.49281 29.0805 8.37799 28.6263 7.3737L24.8418 11.1582C24.3138 11.6862 24.0498 11.9502 23.7454 12.0491C23.4776 12.1362 23.1891 12.1362 22.9213 12.0491C22.6169 11.9502 22.3529 11.6862 21.8249 11.1582L20.8418 10.1752Z" stroke="#1558E0" stroke-width="2" stroke-linecap="round" stroke-linejoin="round"/>
</svg>
