<svg width="32" height="32" viewBox="0 0 32 32" fill="none" xmlns="http://www.w3.org/2000/svg">
<path opacity="0.12" d="M19.2 10.6666H6.13333C5.3866 10.6666 5.01323 10.6666 4.72801 10.812C4.47713 10.9398 4.27316 11.1438 4.14532 11.3946C4 11.6799 4 12.0532 4 12.8V25.8666C4 26.6134 4 26.9867 4.14532 27.2719C4.27316 27.5228 4.47713 27.7268 4.72801 27.8546C5.01323 28 5.3866 28 6.13333 28H19.2C19.9467 28 20.3201 28 20.6053 27.8546C20.8562 27.7268 21.0602 27.5228 21.188 27.2719C21.3333 26.9867 21.3333 26.6134 21.3333 25.8666V12.8C21.3333 12.0532 21.3333 11.6799 21.188 11.3946C21.0602 11.1438 20.8562 10.9398 20.6053 10.812C20.3201 10.6666 19.9467 10.6666 19.2 10.6666Z" fill="#1558E0"/>
<path d="M27.3333 21.3333H10.6667M10.6667 21.3333V4.66667M10.6667 21.3333L4.66667 27.3333M4.66667 10.6667H21.3333M21.3333 10.6667V27.3333M21.3333 10.6667L27.3333 4.66667M28 20.4497V5.06667C28 4.6933 28 4.50661 27.9273 4.36401C27.8634 4.23856 27.7614 4.13658 27.636 4.07266C27.4934 4 27.3067 4 26.9333 4H11.5503C11.2242 4 11.0611 4 10.9077 4.03684C10.7716 4.0695 10.6416 4.12337 10.5223 4.19648C10.3877 4.27894 10.2724 4.39424 10.0418 4.62484L4.62484 10.0418C4.39424 10.2724 4.27894 10.3877 4.19648 10.5223C4.12337 10.6416 4.0695 10.7716 4.03684 10.9077C4 11.0611 4 11.2242 4 11.5503V26.9333C4 27.3067 4 27.4934 4.07266 27.636C4.13658 27.7614 4.23856 27.8634 4.36401 27.9273C4.50661 28 4.6933 28 5.06667 28H20.4497C20.7758 28 20.9389 28 21.0923 27.9632C21.2284 27.9305 21.3584 27.8766 21.4777 27.8035C21.6123 27.7211 21.7276 27.6058 21.9582 27.3752L27.3752 21.9582C27.6058 21.7276 27.7211 21.6123 27.8035 21.4777C27.8766 21.3584 27.9305 21.2284 27.9632 21.0923C28 20.9389 28 20.7758 28 20.4497Z" stroke="#1558E0" stroke-width="2" stroke-linecap="round" stroke-linejoin="round"/>
</svg>
