<svg width="32" height="32" viewBox="0 0 32 32" fill="none" xmlns="http://www.w3.org/2000/svg">
<path opacity="0.12" d="M6.66669 13.0666C6.66669 10.8264 6.66669 9.70631 7.10266 8.85066C7.48615 8.09802 8.09808 7.48609 8.85073 7.1026C9.70637 6.66663 10.8265 6.66663 13.0667 6.66663H18.9334C21.1736 6.66663 22.2937 6.66663 23.1493 7.1026C23.902 7.48609 24.5139 8.09802 24.8974 8.85066C25.3334 9.70631 25.3334 10.8264 25.3334 13.0666V18.9333C25.3334 21.1735 25.3334 22.2936 24.8974 23.1493C24.5139 23.9019 23.902 24.5138 23.1493 24.8973C22.2937 25.3333 21.1736 25.3333 18.9334 25.3333H13.0667C10.8265 25.3333 9.70637 25.3333 8.85073 24.8973C8.09808 24.5138 7.48615 23.9019 7.10266 23.1493C6.66669 22.2936 6.66669 21.1735 6.66669 18.9333V13.0666Z" fill="#1558E0"/>
<path d="M12 2.66663V6.66663M20 2.66663V6.66663M12 25.3333V29.3333M20 25.3333V29.3333M25.3334 12H29.3334M25.3334 18.6666H29.3334M2.66669 12H6.66669M2.66669 18.6666H6.66669M13.0667 25.3333H18.9334C21.1736 25.3333 22.2937 25.3333 23.1493 24.8973C23.902 24.5138 24.5139 23.9019 24.8974 23.1493C25.3334 22.2936 25.3334 21.1735 25.3334 18.9333V13.0666C25.3334 10.8264 25.3334 9.70631 24.8974 8.85066C24.5139 8.09802 23.902 7.48609 23.1493 7.1026C22.2937 6.66663 21.1736 6.66663 18.9334 6.66663H13.0667C10.8265 6.66663 9.70637 6.66663 8.85073 7.1026C8.09808 7.48609 7.48615 8.09802 7.10266 8.85066C6.66669 9.70631 6.66669 10.8264 6.66669 13.0666V18.9333C6.66669 21.1735 6.66669 22.2936 7.10266 23.1493C7.48615 23.9019 8.09808 24.5138 8.85073 24.8973C9.70637 25.3333 10.8265 25.3333 13.0667 25.3333Z" stroke="#1558E0" stroke-width="2" stroke-linecap="round" stroke-linejoin="round"/>
</svg>
