<svg width="160" height="160" viewBox="0 0 160 160" fill="none" xmlns="http://www.w3.org/2000/svg">
<path opacity="0.12" d="M128.393 18.2736L110.876 35.791C108.236 38.4311 106.916 39.7512 106.421 41.2734C105.986 42.6123 105.986 44.0547 106.421 45.3936C106.916 46.9158 108.236 48.2359 110.876 50.876L112.458 52.4577C115.098 55.0978 116.418 56.4179 117.94 56.9124C119.279 57.3475 120.721 57.3475 122.06 56.9124C123.583 56.4179 124.903 55.0978 127.543 52.4577L143.929 36.0716C145.694 40.3661 146.667 45.0695 146.667 50.0002C146.667 70.2506 130.251 86.6668 110 86.6668C107.559 86.6668 105.173 86.4282 102.865 85.9731C99.6243 85.3339 98.0038 85.0143 97.0214 85.1122C95.9771 85.2162 95.4623 85.3728 94.5369 85.868C93.6665 86.3339 92.7934 87.207 91.0471 88.9533L43.3335 136.667C37.8107 142.19 28.8564 142.19 23.3335 136.667C17.8107 131.144 17.8107 122.19 23.3335 116.667L71.0471 68.9533C72.7934 67.207 73.6665 66.3339 74.1323 65.4634C74.6275 64.538 74.7841 64.0233 74.8882 62.9789C74.9861 61.9965 74.6665 60.376 74.0273 57.1351C73.5721 54.8272 73.3335 52.4416 73.3335 50.0002C73.3335 29.7497 89.7498 13.3335 110 13.3335C116.704 13.3335 122.987 15.1323 128.393 18.2736Z" fill="#BBC2C8"/>
<path d="M40.0002 40.0002L70.0002 70.0002M40.0002 40.0002H20.0002L13.3335 20.0002L20.0002 13.3335L40.0002 20.0002V40.0002ZM128.393 18.2736L110.876 35.791C108.236 38.4311 106.916 39.7512 106.421 41.2734C105.986 42.6123 105.986 44.0547 106.421 45.3936C106.916 46.9158 108.236 48.2359 110.876 50.876L112.458 52.4577C115.098 55.0978 116.418 56.4179 117.94 56.9124C119.279 57.3475 120.721 57.3475 122.06 56.9124C123.582 56.4179 124.903 55.0978 127.543 52.4577L143.929 36.0716C145.694 40.3661 146.667 45.0695 146.667 50.0002C146.667 70.2506 130.251 86.6668 110 86.6668C107.559 86.6668 105.173 86.4282 102.865 85.9731C99.6243 85.3339 98.0038 85.0143 97.0214 85.1122C95.977 85.2162 95.4623 85.3728 94.5369 85.868C93.6665 86.3339 92.7933 87.207 91.047 88.9533L43.3335 136.667C37.8107 142.19 28.8563 142.19 23.3335 136.667C17.8107 131.144 17.8107 122.19 23.3335 116.667L71.047 68.9533C72.7933 67.207 73.6665 66.3339 74.1323 65.4634C74.6275 64.538 74.7841 64.0233 74.8882 62.9789C74.986 61.9965 74.6664 60.376 74.0273 57.1351C73.5721 54.8272 73.3335 52.4416 73.3335 50.0002C73.3335 29.7497 89.7497 13.3335 110 13.3335C116.704 13.3335 122.987 15.1323 128.393 18.2736ZM80.0005 99.9998L116.667 136.666C122.19 142.189 131.144 142.189 136.667 136.666C142.19 131.143 142.19 122.189 136.667 116.666L106.502 86.5021C104.367 86.3001 102.285 85.9148 100.272 85.3624C97.6783 84.6505 94.8331 85.1672 92.9312 87.0691L80.0005 99.9998Z" stroke="#BBC2C8" stroke-width="2" stroke-linecap="round" stroke-linejoin="round"/>
</svg>
