<svg width="56" height="56" viewBox="0 0 56 56" fill="none" xmlns="http://www.w3.org/2000/svg">
<path opacity="0.12" d="M5.57792 42.2295L24.7693 9.08074C25.83 7.24869 26.3603 6.33266 27.0522 6.025C27.6557 5.75664 28.3447 5.75664 28.9483 6.025C29.6402 6.33266 30.1705 7.24868 31.2312 9.08073L50.4226 42.2295C51.487 44.0682 52.0193 44.9875 51.9406 45.742C51.872 46.4001 51.5272 46.9981 50.992 47.3873C50.3785 47.8334 49.3162 47.8334 47.1916 47.8334H8.80885C6.68429 47.8334 5.62201 47.8334 5.00844 47.3873C4.47327 46.9981 4.12848 46.4001 4.05986 45.742C3.9812 44.9875 4.51344 44.0682 5.57792 42.2295Z" fill="#FE8200"/>
<path d="M28.0002 21.0001V30.3334M28.0002 39.6667H28.0236M24.7693 9.08074L5.57792 42.2295C4.51344 44.0682 3.9812 44.9875 4.05986 45.742C4.12848 46.4001 4.47327 46.9982 5.00844 47.3873C5.62201 47.8334 6.68429 47.8334 8.80885 47.8334H47.1916C49.3162 47.8334 50.3785 47.8334 50.992 47.3873C51.5272 46.9982 51.872 46.4001 51.9406 45.742C52.0193 44.9875 51.487 44.0682 50.4226 42.2295L31.2312 9.08073C30.1705 7.24868 29.6402 6.33266 28.9483 6.025C28.3447 5.75664 27.6557 5.75664 27.0522 6.025C26.3603 6.33266 25.83 7.24869 24.7693 9.08074Z" stroke="#FE8200" stroke-width="2" stroke-linecap="round" stroke-linejoin="round"/>
</svg>
