<svg width="56" height="56" viewBox="0 0 56 56" fill="none" xmlns="http://www.w3.org/2000/svg">
<path fill-rule="evenodd" clip-rule="evenodd" d="M37.8959 4.6665H18.1032C16.225 4.66648 14.6748 4.66645 13.412 4.76963C12.1004 4.87678 10.8948 5.10677 9.76233 5.68378C8.00615 6.5786 6.57833 8.00642 5.68351 9.7626C5.1065 10.895 4.87652 12.1007 4.76936 13.4122C4.66619 14.675 4.66621 16.2252 4.66624 18.1035L4.66613 32.9875C4.66512 34.8434 4.66437 36.2216 4.98427 37.4155C5.84729 40.6363 8.36307 43.1521 11.5839 44.0151C12.3014 44.2074 13.0853 44.2838 13.9996 44.314L13.9996 47.5321C13.9995 48.081 13.9993 48.6405 14.041 49.099C14.0808 49.5376 14.1863 50.3653 14.7642 51.0893C15.4291 51.9223 16.4375 52.4069 17.5034 52.4058C18.4296 52.4048 19.1419 51.9701 19.5092 51.7272C19.8933 51.4733 20.3301 51.1237 20.7587 50.7807L26.3894 46.2761C27.5994 45.3081 27.9586 45.0348 28.3319 44.8441C28.7064 44.6528 29.1049 44.513 29.5168 44.4284C29.9275 44.3442 30.3787 44.3332 31.9283 44.3332H37.896C39.7742 44.3332 41.3244 44.3332 42.5872 44.2301C43.8987 44.1229 45.1044 43.8929 46.2368 43.3159C47.993 42.4211 49.4208 40.9933 50.3156 39.2371C50.8926 38.1046 51.1226 36.899 51.2298 35.5874C51.333 34.3247 51.3329 32.7745 51.3329 30.8963V18.1034C51.3329 16.2252 51.333 14.675 51.2298 13.4122C51.1226 12.1007 50.8926 10.895 50.3156 9.7626C49.4208 8.00642 47.993 6.5786 46.2368 5.68378C45.1044 5.10677 43.8987 4.87678 42.5872 4.76963C41.3244 4.66645 39.7742 4.66648 37.8959 4.6665ZM37.8159 20.3164C38.7272 19.4052 38.7272 17.9278 37.8159 17.0166C36.9047 16.1054 35.4273 16.1054 34.5161 17.0166L25.666 25.8667L22.6493 22.8499C21.738 21.9387 20.2607 21.9387 19.3494 22.8499C18.4382 23.7611 18.4382 25.2385 19.3494 26.1498L24.0161 30.8164C24.9273 31.7276 26.4047 31.7276 27.3159 30.8164L37.8159 20.3164Z" fill="#00BD4B"/>
</svg>
