<svg width="32" height="33" viewBox="0 0 32 33" fill="none" xmlns="http://www.w3.org/2000/svg">
<g clip-path="url(#clip0_9005_3386)">
<path d="M29.6 0.382324H2.4C1.07452 0.382324 0 1.45684 0 2.78232V29.9823C0 31.3078 1.07452 32.3823 2.4 32.3823H29.6C30.9255 32.3823 32 31.3078 32 29.9823V2.78232C32 1.45684 30.9255 0.382324 29.6 0.382324Z" fill="#076AF3"/>
<path fill-rule="evenodd" clip-rule="evenodd" d="M18.1334 4.64893H9.6001V28.1156H12.8001V19.5823H18.1334C22.2614 19.5823 25.6001 16.2436 25.6001 12.1156C25.6001 7.98759 22.2614 4.64893 18.1334 4.64893ZM18.1334 16.3929L12.8001 16.3823V7.84893H18.1334C20.5014 7.83826 22.4108 9.74759 22.4108 12.1156C22.4108 14.4836 20.5014 16.3929 18.1334 16.3929Z" fill="white"/>
</g>
<defs>
<clipPath id="clip0_9005_3386">
<rect width="32" height="32" fill="white" transform="translate(0 0.382324)"/>
</clipPath>
</defs>
</svg>
