<svg width="80" height="80" viewBox="0 0 80 80" fill="none" xmlns="http://www.w3.org/2000/svg">
<rect width="80" height="80" rx="40" fill="#11171C"/>
<path fill-rule="evenodd" clip-rule="evenodd" d="M35.3436 24.6705C35.3635 24.6838 35.3835 24.6972 35.4035 24.7105L52.9848 36.4313C53.4935 36.7704 53.9651 37.0848 54.3274 37.3769C54.7055 37.6818 55.1511 38.1046 55.4076 38.7231C55.7466 39.5406 55.7466 40.4594 55.4076 41.2769C55.1511 41.8954 54.7055 42.3182 54.3274 42.6231C53.9652 42.9153 53.4935 43.2296 52.9848 43.5687L35.3436 55.3295C34.7218 55.7441 34.1627 56.1169 33.6883 56.374C33.2135 56.6313 32.5618 56.9253 31.8012 56.8799C30.8282 56.8218 29.9295 56.3408 29.3415 55.5635C28.8818 54.9558 28.7649 54.2505 28.7156 53.7128C28.6664 53.1754 28.6665 52.5034 28.6665 51.7561L28.6665 28.3161C28.6665 28.292 28.6665 28.268 28.6665 28.244C28.6665 27.4967 28.6664 26.8247 28.7156 26.2873C28.7649 25.7496 28.8818 25.0442 29.3415 24.4365C29.9295 23.6592 30.8282 23.1782 31.8012 23.1202C32.5618 23.0747 33.2135 23.3688 33.6883 23.6261C34.1627 23.8832 34.7218 24.256 35.3436 24.6705Z" fill="white"/>
</svg>
