<svg width="28" height="28" viewBox="0 0 28 28" fill="none" xmlns="http://www.w3.org/2000/svg">
<path opacity="0.12" d="M18.2365 8.90328C17.7745 8.44126 17.5435 8.21025 17.457 7.94386C17.3808 7.70955 17.3808 7.45714 17.457 7.22282C17.5435 6.95644 17.7745 6.72543 18.2365 6.26341L21.548 2.95198C20.6692 2.55457 19.6937 2.33334 18.6666 2.33334C14.8006 2.33334 11.6666 5.46735 11.6666 9.33334C11.6666 9.90622 11.7354 10.463 11.8652 10.9959C12.0043 11.5666 12.0738 11.852 12.0614 12.0322C12.0485 12.2209 12.0204 12.3214 11.9333 12.4893C11.8502 12.6497 11.6909 12.809 11.3724 13.1276L4.08327 20.4167C3.11677 21.3832 3.11677 22.9502 4.08327 23.9167C5.04977 24.8832 6.61677 24.8832 7.58327 23.9167L14.8724 16.6276C15.1909 16.309 15.3502 16.1497 15.5106 16.0666C15.6786 15.9796 15.779 15.9514 15.9677 15.9385C16.148 15.9262 16.4333 15.9957 17.004 16.1347C17.5369 16.2645 18.0937 16.3333 18.6666 16.3333C22.5326 16.3333 25.6666 13.1993 25.6666 9.33334C25.6666 8.3062 25.4454 7.33073 25.048 6.45198L21.7365 9.76341C21.2745 10.2254 21.0435 10.4564 20.7771 10.543C20.5428 10.6191 20.2904 10.6191 20.0561 10.543C19.7897 10.4564 19.5587 10.2254 19.0967 9.76341L18.2365 8.90328Z" fill="white"/>
<path d="M18.2365 8.90328C17.7745 8.44126 17.5435 8.21025 17.457 7.94386C17.3808 7.70955 17.3808 7.45714 17.457 7.22282C17.5435 6.95644 17.7745 6.72543 18.2365 6.26341L21.548 2.95198C20.6692 2.55457 19.6937 2.33334 18.6666 2.33334C14.8006 2.33334 11.6666 5.46735 11.6666 9.33334C11.6666 9.90622 11.7354 10.463 11.8652 10.9959C12.0043 11.5666 12.0738 11.852 12.0614 12.0322C12.0485 12.2209 12.0204 12.3214 11.9333 12.4893C11.8502 12.6497 11.6909 12.809 11.3724 13.1276L4.08327 20.4167C3.11677 21.3832 3.11677 22.9502 4.08327 23.9167C5.04977 24.8832 6.61677 24.8832 7.58327 23.9167L14.8724 16.6276C15.1909 16.309 15.3502 16.1497 15.5106 16.0666C15.6786 15.9796 15.779 15.9514 15.9677 15.9385C16.148 15.9262 16.4333 15.9957 17.004 16.1347C17.5369 16.2645 18.0937 16.3333 18.6666 16.3333C22.5326 16.3333 25.6666 13.1993 25.6666 9.33334C25.6666 8.3062 25.4454 7.33073 25.048 6.45198L21.7365 9.76341C21.2745 10.2254 21.0435 10.4564 20.7771 10.543C20.5428 10.6191 20.2904 10.6191 20.0561 10.543C19.7897 10.4564 19.5587 10.2254 19.0967 9.76341L18.2365 8.90328Z" stroke="white" stroke-width="2" stroke-linecap="round" stroke-linejoin="round"/>
</svg>
