<svg width="48" height="34" viewBox="0 0 48 34" fill="none" xmlns="http://www.w3.org/2000/svg">
<g clip-path="url(#clip0_9384_19129)">
<path d="M46.9399 5.303C46.3796 3.21717 44.7623 1.5878 42.6918 1.02339C38.9669 0 23.9753 0 23.9753 0C23.9753 0 8.98367 0.0310117 5.25885 1.0544C3.18836 1.61882 1.57097 3.24818 1.01071 5.33401C-0.115975 12.0015 -0.553103 22.1609 1.04149 28.5618C1.60176 30.6476 3.21914 32.277 5.28963 32.8414C9.01446 33.8648 24.0061 33.8648 24.0061 33.8648C24.0061 33.8648 38.9977 33.8648 42.7226 32.8414C44.793 32.277 46.4104 30.6476 46.9707 28.5618C48.1589 21.8849 48.5253 11.7317 46.9399 5.303Z" fill="#FF0000"/>
<path d="M19.2036 24.1892L31.6402 16.9325L19.2036 9.67578V24.1892Z" fill="white"/>
</g>
<defs>
<clipPath id="clip0_9384_19129">
<rect width="48" height="34" fill="white"/>
</clipPath>
</defs>
</svg>
