<svg width="36" height="36" viewBox="0 0 36 36" fill="none" xmlns="http://www.w3.org/2000/svg">
<path fill-rule="evenodd" clip-rule="evenodd" d="M10.5391 3C10.1888 2.99996 9.84759 2.99993 9.558 3.02186C9.2406 3.04589 8.86523 3.10245 8.48215 3.28108C7.84293 3.57916 7.32916 4.09293 7.03108 4.73215C6.85245 5.11523 6.79589 5.4906 6.77186 5.808C6.74993 6.09758 6.74996 6.4388 6.75 6.78911L6.75001 15.75C6.75001 21.4546 10.996 26.1675 16.5 26.9009V30H10.5C9.67157 30 9 30.6716 9 31.5C9 32.3284 9.67157 33 10.5 33H25.5C26.3284 33 27 32.3284 27 31.5C27 30.6716 26.3284 30 25.5 30H19.5V26.9009C25.004 26.1675 29.25 21.4546 29.25 15.75L29.25 6.78912C29.25 6.43885 29.2501 6.09755 29.2282 5.808C29.2041 5.4906 29.1476 5.11523 28.9689 4.73215C28.6709 4.09293 28.1571 3.57916 27.5179 3.28108C27.1348 3.10245 26.7594 3.04589 26.442 3.02186C26.1524 2.99993 25.8112 2.99996 25.4609 3H10.5391Z" fill="#076AF3"/>
<path d="M3 6C3.82843 6 4.5 6.67157 4.5 7.5V15C4.5 15.8284 3.82843 16.5 3 16.5C2.17157 16.5 1.5 15.8284 1.5 15V7.5C1.5 6.67157 2.17157 6 3 6Z" fill="#076AF3"/>
<path d="M33 6C33.8284 6 34.5 6.67157 34.5 7.5V15C34.5 15.8284 33.8284 16.5 33 16.5C32.1716 16.5 31.5 15.8284 31.5 15V7.5C31.5 6.67157 32.1716 6 33 6Z" fill="#076AF3"/>
</svg>
