<svg width="36" height="36" viewBox="0 0 36 36" fill="none" xmlns="http://www.w3.org/2000/svg">
<path d="M20.9882 3.18614C21.0708 2.52539 20.7079 1.88928 20.0971 1.62413C19.4863 1.35898 18.7738 1.52826 18.3475 2.03981L4.95327 18.1128C4.72179 18.3905 4.48734 18.6717 4.31664 18.9189C4.1552 19.1526 3.86044 19.6122 3.85133 20.2162C3.8409 20.9076 4.14902 21.5655 4.68688 22.0001C5.15671 22.3798 5.69846 22.4475 5.98137 22.4731C6.2805 22.5002 6.64663 22.5002 7.00811 22.5001L16.3006 22.5001L15.0114 32.814C14.9288 33.4748 15.2917 34.1109 15.9025 34.376C16.5133 34.6412 17.2258 34.4719 17.6521 33.9604L31.0463 17.8873C31.2778 17.6097 31.5122 17.3284 31.6829 17.0813C31.8444 16.8476 32.1391 16.388 32.1483 15.784C32.1587 15.0926 31.8506 14.4347 31.3127 14.0001C30.8429 13.6204 30.3011 13.5526 30.0182 13.527C29.7191 13.4999 29.3529 13.5 28.9914 13.5001L19.699 13.5001L20.9882 3.18614Z" fill="#076AF3"/>
</svg>
