<svg width="36" height="36" viewBox="0 0 36 36" fill="none" xmlns="http://www.w3.org/2000/svg">
<path fill-rule="evenodd" clip-rule="evenodd" d="M11.6382 3H24.3621C25.5695 2.99998 26.5661 2.99997 27.3779 3.06629C28.221 3.13518 28.9961 3.28303 29.7241 3.65396C30.8531 4.2292 31.7709 5.14709 32.3462 6.27606C32.7171 7.00406 32.865 7.77912 32.9339 8.62226C33.0002 9.43405 33.0002 10.4306 33.0001 11.638V19.862C33.0002 21.0694 33.0002 22.066 32.9339 22.8777C32.865 23.7209 32.7171 24.4959 32.3462 25.2239C31.7709 26.3529 30.8531 27.2708 29.7241 27.846C28.9961 28.217 28.221 28.3648 27.3779 28.4337C26.5661 28.5 25.5696 28.5 24.3621 28.5H20.5258C19.5296 28.5 19.2395 28.5071 18.9755 28.5612C18.7107 28.6156 18.4545 28.7055 18.2138 28.8284C17.9738 28.951 17.7429 29.1267 16.965 29.749L13.3453 32.6448C13.0698 32.8653 12.789 33.0901 12.5421 33.2533C12.3059 33.4094 11.848 33.6889 11.2526 33.6895C10.5674 33.6903 9.91915 33.3787 9.49167 32.8432C9.12019 32.3778 9.05238 31.8457 9.02677 31.5638C9 31.269 9.00007 30.9093 9.00014 30.5564L9.00014 28.4877C8.41243 28.4683 7.90843 28.4191 7.44723 28.2956C5.37668 27.7408 3.75939 26.1235 3.20459 24.0529C2.99895 23.2854 2.99942 22.3994 3.00007 21.2064L3.00014 11.6381C3.00012 10.4306 3.00011 9.43406 3.06644 8.62226C3.13532 7.77912 3.28317 7.00406 3.65411 6.27606C4.22935 5.14709 5.14723 4.2292 6.2762 3.65396C7.00421 3.28303 7.77926 3.13518 8.62241 3.06629C9.43419 2.99997 10.4308 2.99998 11.6382 3ZM9 12.75C9 11.9216 9.67157 11.25 10.5 11.25H18C18.8284 11.25 19.5 11.9216 19.5 12.75C19.5 13.5784 18.8284 14.25 18 14.25H10.5C9.67157 14.25 9 13.5784 9 12.75ZM10.5 16.5C9.67157 16.5 9 17.1716 9 18C9 18.8284 9.67157 19.5 10.5 19.5H22.5C23.3284 19.5 24 18.8284 24 18C24 17.1716 23.3284 16.5 22.5 16.5H10.5Z" fill="#076AF3"/>
</svg>
