<svg width="36" height="36" viewBox="0 0 36 36" fill="none" xmlns="http://www.w3.org/2000/svg">
<path fill-rule="evenodd" clip-rule="evenodd" d="M17.5709 1.63265C17.8554 1.59153 18.1444 1.59153 18.429 1.63265C18.7569 1.68003 19.0621 1.79532 19.3044 1.88685L19.3693 1.91132L27.6079 5.0006C28.5346 5.34658 29.3484 5.65042 29.9752 6.20275C30.5234 6.68593 30.9458 7.29537 31.2057 7.97839C31.5028 8.75915 31.5015 9.62783 31.5001 10.617L31.4999 17.9998C31.4999 22.2397 29.194 25.7746 26.7013 28.3714C24.192 30.9856 21.3209 32.8321 19.8028 33.7178L19.7413 33.7538C19.4642 33.9165 19.1047 34.1276 18.6289 34.2296C18.2398 34.3131 17.7601 34.3131 17.3709 34.2296C16.8952 34.1276 16.5356 33.9165 16.2585 33.7538L16.1971 33.7178C14.6789 32.8321 11.8078 30.9856 9.2985 28.3714C6.80585 25.7746 4.49991 22.2397 4.49991 17.9998L4.49971 10.617C4.49828 9.62784 4.49702 8.75915 4.79412 7.97839C5.05403 7.29537 5.47637 6.68593 6.02464 6.20275C6.65137 5.65042 7.46518 5.34658 8.39187 5.0006L16.6305 1.91132L16.6955 1.88685C16.9378 1.79532 17.2429 1.68003 17.5709 1.63265ZM24.3105 14.5607C24.8963 13.9749 24.8963 13.0251 24.3105 12.4393C23.7248 11.8536 22.775 11.8536 22.1892 12.4393L16.4999 18.1287L14.5605 16.1893C13.9748 15.6036 13.025 15.6036 12.4392 16.1893C11.8534 16.7751 11.8534 17.7249 12.4392 18.3107L15.4392 21.3107C16.025 21.8964 16.9748 21.8964 17.5605 21.3107L24.3105 14.5607Z" fill="#076AF3"/>
</svg>
