<svg width="16" height="16" viewBox="0 0 16 16" fill="none" xmlns="http://www.w3.org/2000/svg">
<rect width="16" height="16" rx="8" fill="#11171C"/>
<path d="M4.77549 12C4.17928 12 3.75 11.5673 3.75 10.9825V5.01767C3.75 4.43289 4.17928 4.00015 4.77549 4.00015C5.37171 4.00015 5.80099 4.43289 5.80099 5.01767V10.9825C5.80099 11.5673 5.37171 12 4.77549 12Z" fill="white"/>
<path d="M9.86431 12C8.99383 12 7.95641 11.6608 7.39596 11.1462C7.13363 10.9006 6.97861 10.6316 6.97861 10.3275C6.99054 9.78952 7.43174 9.43864 7.89679 9.43864C8.0518 9.43864 8.21875 9.48543 8.36184 9.57899C8.5407 9.69595 9.04153 10.234 9.86431 10.234C10.4128 10.234 10.6752 10.0468 10.6752 9.67256C10.6752 9.30999 10.4248 9.19304 9.87623 8.95912L9.06537 8.60825C7.81332 8.07025 7.07401 7.36851 7.07401 6.28081C7.07401 4.90072 8.26644 4.00015 9.82853 4.00015C11.2118 3.98845 11.8795 4.6668 12.0703 4.88902C12.2492 5.08785 12.3088 5.29837 12.3088 5.4855C12.3088 6.00011 11.8437 6.38607 11.3906 6.38607C11.2237 6.38607 11.0448 6.33929 10.866 6.21063C10.6036 6.0352 10.3771 5.7662 9.85238 5.7662C9.44695 5.7662 9.14884 5.90655 9.14884 6.25742C9.14884 6.54981 9.33963 6.69016 9.82853 6.88898L10.7348 7.26325C12.0465 7.80125 12.75 8.45621 12.75 9.59069C12.75 11.1111 11.486 12 9.86431 12Z" fill="white"/>
</svg>
