<svg width="136" height="19" viewBox="0 0 136 19" fill="none" xmlns="http://www.w3.org/2000/svg">
<path d="M2.26239 19C0.947048 19 0 18.0263 0 16.7106V3.28977C0 1.974 0.947048 1.00034 2.26239 1.00034C3.57774 1.00034 4.52478 1.974 4.52478 3.28977V16.7106C4.52478 18.0263 3.57774 19 2.26239 19Z" fill="#11171C"/>
<path d="M13.4891 19C11.5687 19 9.27996 18.2369 8.04353 17.079C7.46478 16.5264 7.12279 15.9211 7.12279 15.2369C7.1491 14.0264 8.12245 13.2369 9.14842 13.2369C9.49041 13.2369 9.85871 13.3422 10.1744 13.5527C10.569 13.8159 11.6739 15.0264 13.4891 15.0264C14.6992 15.0264 15.2779 14.6053 15.2779 13.7633C15.2779 12.9475 14.7255 12.6843 13.5154 12.158L11.7265 11.3686C8.96427 10.1581 7.33325 8.57914 7.33325 6.13182C7.33325 3.02661 9.96394 1.00034 13.4101 1.00034C16.4617 0.974021 17.9349 2.50031 18.3558 3.0003C18.7504 3.44766 18.882 3.92133 18.882 4.34238C18.882 5.50025 17.856 6.36866 16.8563 6.36866C16.488 6.36866 16.0934 6.2634 15.6988 5.97393C15.1201 5.5792 14.6203 4.97395 13.4628 4.97395C12.5683 4.97395 11.9106 5.28973 11.9106 6.07919C11.9106 6.73707 12.3316 7.05286 13.4101 7.50022L15.4095 8.34231C18.3032 9.55281 19.8553 11.0265 19.8553 13.5791C19.8553 17 17.0668 19 13.4891 19Z" fill="#11171C"/>
<path d="M29.7354 19C25.2106 19 22.0538 15.8422 22.0538 11.3159V3.28977C22.0538 1.974 23.0272 1.00034 24.3162 1.00034C25.6052 1.00034 26.5786 1.974 26.5786 3.28977V11.658C26.5786 13.579 27.815 14.8422 29.7354 14.8422C31.6558 14.8422 32.8922 13.579 32.8922 11.658V3.28977C32.8922 1.974 33.8393 1.00034 35.1546 1.00034C36.4437 1.00034 37.417 1.974 37.417 3.28977V11.3159C37.417 15.8422 34.2602 19 29.7354 19Z" fill="#11171C"/>
<path d="M42.7575 19C41.4685 19 40.4951 18.0263 40.4951 16.7106V3.60555C40.4951 2.28979 41.4685 1.31612 42.7838 1.31612H47.3086C51.2809 1.31612 54.0169 3.73713 54.0169 7.28969C54.0169 10.7896 51.2283 13.2896 47.3086 13.2896H45.0199V16.7106C45.0199 18.0263 44.0466 19 42.7575 19ZM45.0199 9.34229H47.3349C48.5976 9.34229 49.4132 8.52651 49.4132 7.28969C49.4132 6.07919 48.5976 5.26341 47.3349 5.26341H45.0199V9.34229Z" fill="#11171C"/>
<path d="M58.4481 19C57.1591 19 56.1857 18.0263 56.1857 16.7106V3.60555C56.1857 2.28979 57.1591 1.31612 58.4744 1.31612H62.9992C66.9716 1.31612 69.7075 3.73713 69.7075 7.28969C69.7075 10.7896 66.9189 13.2896 62.9992 13.2896H60.7105V16.7106C60.7105 18.0263 59.7372 19 58.4481 19ZM60.7105 9.34229H63.0255C64.2883 9.34229 65.1038 8.52651 65.1038 7.28969C65.1038 6.07919 64.2883 5.26341 63.0255 5.26341H60.7105V9.34229Z" fill="#11171C"/>
<path d="M80.3472 1.00034C85.6085 1.00034 89.7387 4.97395 89.7387 10.0002C89.7387 15.0527 85.6085 19 80.3472 19C75.0858 19 71.0082 15.0527 71.0082 10.0002C71.0082 4.94763 75.1121 1.00034 80.3472 1.00034ZM80.3735 5.15815C77.5586 5.15815 75.6382 7.1318 75.6382 10.0002C75.6382 12.8949 77.5323 14.8422 80.3735 14.8422C83.162 14.8422 85.1087 12.8422 85.1087 10.0002C85.1087 7.18443 83.1357 5.15815 80.3735 5.15815Z" fill="#11171C"/>
<path d="M105.506 15.2106C105.927 15.8158 106.138 16.3948 106.138 16.9474C106.138 18.0527 105.138 19 104.007 19C103.165 19 102.481 18.6316 101.981 17.8684L98.9295 13.2896H96.5619V16.7106C96.5619 18.0263 95.5885 19 94.2995 19C93.0104 19 92.0371 18.0263 92.0371 16.7106V3.60555C92.0371 2.28979 93.0104 1.31612 94.3258 1.31612H98.8506C102.823 1.31612 105.559 3.73713 105.559 7.26338C105.559 9.23703 104.691 10.8949 103.218 11.9738L105.506 15.2106ZM96.5619 5.26341V9.34229H98.8769C100.14 9.34229 100.955 8.52651 100.955 7.28969C100.955 6.07919 100.14 5.26341 98.8769 5.26341H96.5619Z" fill="#11171C"/>
<path d="M114.266 19C112.977 19 112.003 18.0263 112.003 16.7106V5.39499H108.61C107.426 5.39499 106.532 4.52659 106.532 3.3424C106.532 2.18452 107.426 1.31612 108.61 1.31612H119.922C121.132 1.31612 122 2.18452 122 3.3424C122 4.52659 121.106 5.39499 119.922 5.39499H116.528V16.7106C116.528 18.0263 115.555 19 114.266 19Z" fill="#11171C"/>
<path d="M130.888 8.2C130.093 8.2 129.379 8.02133 128.744 7.664C128.115 7.30133 127.616 6.81333 127.248 6.2C126.88 5.58133 126.696 4.88533 126.696 4.112C126.696 3.33867 126.88 2.64267 127.248 2.024C127.616 1.40533 128.115 0.917333 128.744 0.559999C129.379 0.202666 130.093 0.0239992 130.888 0.0239992C131.677 0.0239992 132.387 0.207999 133.016 0.575999C133.651 0.938666 134.152 1.42933 134.52 2.048C134.893 2.66667 135.08 3.35467 135.08 4.112C135.08 4.88533 134.896 5.58133 134.528 6.2C134.16 6.81333 133.659 7.30133 133.024 7.664C132.389 8.02133 131.677 8.2 130.888 8.2ZM130.888 7.584C131.512 7.584 132.088 7.44 132.616 7.152C133.149 6.85867 133.576 6.45333 133.896 5.936C134.221 5.41333 134.384 4.80533 134.384 4.112C134.384 3.41867 134.221 2.81333 133.896 2.296C133.576 1.77333 133.149 1.368 132.616 1.08C132.088 0.792 131.512 0.648 130.888 0.648C130.264 0.648 129.685 0.792 129.152 1.08C128.624 1.368 128.197 1.77333 127.872 2.296C127.552 2.81333 127.392 3.41867 127.392 4.112C127.392 4.80533 127.552 5.41333 127.872 5.936C128.197 6.45333 128.624 6.85867 129.152 7.152C129.685 7.44 130.264 7.584 130.888 7.584ZM129.392 6.312V1.92H131.144C131.619 1.92 132 2.03733 132.288 2.272C132.581 2.50667 132.728 2.82667 132.728 3.232C132.728 3.552 132.621 3.81867 132.408 4.032C132.195 4.24 131.917 4.376 131.576 4.44L132.952 6.312H132.024L130.768 4.576H130.16V6.312H129.392ZM130.16 3.936H131.016C131.309 3.936 131.536 3.87733 131.696 3.76C131.856 3.64267 131.936 3.47733 131.936 3.264C131.936 3.04533 131.864 2.87467 131.72 2.752C131.576 2.624 131.36 2.56 131.072 2.56H130.16V3.936Z" fill="#11171C"/>
</svg>
