<svg width="28" height="28" viewBox="0 0 28 28" fill="none" xmlns="http://www.w3.org/2000/svg">
<g opacity="0.12">
<path d="M5.83398 9.33331C7.76698 9.33331 9.33398 7.76631 9.33398 5.83331C9.33398 3.90032 7.76698 2.33331 5.83398 2.33331C3.90099 2.33331 2.33398 3.90032 2.33398 5.83331C2.33398 7.76631 3.90099 9.33331 5.83398 9.33331Z" fill="#009C3E"/>
<path d="M22.1673 25.6666C24.1003 25.6666 25.6673 24.0996 25.6673 22.1666C25.6673 20.2336 24.1003 18.6666 22.1673 18.6666C20.2343 18.6666 18.6673 20.2336 18.6673 22.1666C18.6673 24.0996 20.2343 25.6666 22.1673 25.6666Z" fill="#009C3E"/>
</g>
<path d="M13.4173 5.83331H13.9241C17.4792 5.83331 19.2568 5.83331 19.9316 6.47182C20.5148 7.02374 20.7733 7.83681 20.6158 8.62423C20.4337 9.53516 18.9824 10.5616 16.08 12.6146L11.338 15.9687C8.43554 18.0216 6.9843 19.0481 6.80213 19.9591C6.64465 20.7465 6.90314 21.5596 7.48641 22.1115C8.16118 22.75 9.93873 22.75 13.4939 22.75H14.584M9.33398 5.83331C9.33398 7.76631 7.76698 9.33331 5.83398 9.33331C3.90099 9.33331 2.33398 7.76631 2.33398 5.83331C2.33398 3.90032 3.90099 2.33331 5.83398 2.33331C7.76698 2.33331 9.33398 3.90032 9.33398 5.83331ZM25.6673 22.1666C25.6673 24.0996 24.1003 25.6666 22.1673 25.6666C20.2343 25.6666 18.6673 24.0996 18.6673 22.1666C18.6673 20.2336 20.2343 18.6666 22.1673 18.6666C24.1003 18.6666 25.6673 20.2336 25.6673 22.1666Z" stroke="#009C3E" stroke-width="2" stroke-linecap="round" stroke-linejoin="round"/>
</svg>
