<svg width="28" height="28" viewBox="0 0 28 28" fill="none" xmlns="http://www.w3.org/2000/svg">
<path opacity="0.12" d="M13.185 25.2175C13.4433 25.3682 13.5725 25.4435 13.7547 25.4826C13.8962 25.5129 14.1025 25.5129 14.244 25.4826C14.4262 25.4435 14.5554 25.3682 14.8137 25.2175C17.0864 23.8916 23.3327 19.7266 23.3327 14.0001V8.42065C23.3327 7.48788 23.3327 7.0215 23.1801 6.6206C23.0454 6.26644 22.8264 5.95044 22.5421 5.6999C22.2203 5.41629 21.7836 5.25254 20.9102 4.92502L14.6548 2.57923C14.4122 2.48828 14.291 2.4428 14.1662 2.42477C14.0555 2.40878 13.9432 2.40878 13.8325 2.42477C13.7077 2.4428 13.5865 2.48828 13.3439 2.57923L7.08849 4.92502C6.21511 5.25253 5.77843 5.41629 5.45662 5.6999C5.17233 5.95044 4.95334 6.26644 4.81857 6.6206C4.66602 7.0215 4.66602 7.48788 4.66602 8.42065V14.0001C4.66602 19.7266 10.9123 23.8916 13.185 25.2175Z" fill="#009C3E"/>
<path d="M10.4993 13.4167L12.8327 15.75L18.0827 10.5M23.3327 14C23.3327 19.7265 17.0864 23.8915 14.8137 25.2173C14.5554 25.368 14.4262 25.4434 14.244 25.4825C14.1025 25.5128 13.8962 25.5128 13.7547 25.4825C13.5725 25.4434 13.4433 25.368 13.185 25.2173C10.9123 23.8915 4.66602 19.7265 4.66602 14V8.42053C4.66602 7.48776 4.66602 7.02138 4.81857 6.62048C4.95334 6.26632 5.17233 5.95032 5.45662 5.69978C5.77843 5.41617 6.21511 5.25241 7.08849 4.9249L13.3439 2.57911C13.5865 2.48816 13.7077 2.44268 13.8325 2.42465C13.9432 2.40866 14.0555 2.40866 14.1662 2.42465C14.291 2.44268 14.4122 2.48816 14.6548 2.57911L20.9102 4.9249C21.7836 5.25241 22.2203 5.41617 22.5421 5.69978C22.8264 5.95032 23.0454 6.26632 23.1801 6.62048C23.3327 7.02138 23.3327 7.48776 23.3327 8.42053V14Z" stroke="#009C3E" stroke-width="2" stroke-linecap="round" stroke-linejoin="round"/>
</svg>
