<svg width="80" height="80" viewBox="0 0 80 80" fill="none" xmlns="http://www.w3.org/2000/svg">
<g clip-path="url(#clip0_9179_21144)">
<mask id="mask0_9179_21144" style="mask-type:luminance" maskUnits="userSpaceOnUse" x="0" y="0" width="80" height="80">
<path d="M63.3333 0H16.6667C7.46192 0 0 7.46192 0 16.6667V63.3333C0 72.5381 7.46192 80 16.6667 80H63.3333C72.5381 80 80 72.5381 80 63.3333V16.6667C80 7.46192 72.5381 0 63.3333 0Z" fill="white"/>
</mask>
<g mask="url(#mask0_9179_21144)">
<path d="M63.3333 0H16.6667C7.46192 0 0 7.46192 0 16.6667V63.3333C0 72.5381 7.46192 80 16.6667 80H63.3333C72.5381 80 80 72.5381 80 63.3333V16.6667C80 7.46192 72.5381 0 63.3333 0Z" fill="#2D2928"/>
<path d="M79.9993 4.97778V80H28.0215V32.5556C28.0215 17.3222 39.8215 4.97778 54.377 4.97778H79.9993Z" fill="#FF3E80"/>
<path fill-rule="evenodd" clip-rule="evenodd" d="M57.3879 15.5667C57.2212 14.4889 56.2435 13.7222 55.2101 13.8889L53.5324 14.1556C52.4768 14.3222 51.7435 15.3556 51.9101 16.4333L52.3212 19.0556L51.4546 19.1889C50.2768 19.3778 49.6213 20.3556 49.7879 21.4L50.0324 22.9333C50.199 23.9778 51.0657 24.7222 52.4324 24.5111L53.1768 24.3889L53.8101 28.2556C54.499 32.6333 56.6657 34.7667 59.999 34.2444L62.3212 33.8778C63.5324 33.6889 64.2879 32.7556 64.1212 31.6778L63.8546 30.0778C63.6879 29 62.6435 28.3889 61.4657 28.5778C59.7101 28.8556 59.4212 28.1667 59.1212 26.5556L58.6546 23.5222L60.6101 23.2111C61.9768 23 62.5657 22.0222 62.399 20.9778L62.1546 19.4444C61.9879 18.4 61.0546 17.6667 59.8879 17.8556L57.799 18.1889L57.3879 15.5667ZM73.7324 19.5778H73.6657C72.8212 17.3111 71.3435 16.0556 68.5879 16.4889L68.1101 16.5667C64.7768 17.0889 63.1768 19.7556 63.8657 24.0778L64.2657 26.6222C64.9546 31 67.1212 33.1333 70.4546 32.6111L70.9657 32.5333C73.599 32.1111 74.7101 30.2778 75.0212 28.1111H75.0879L75.3546 29.7556C75.5212 30.8333 76.4657 31.6 77.5435 31.4333L79.4212 31.1333C80.499 30.9556 81.1546 29.9444 80.9768 28.8667L79.0879 16.9222C78.9212 15.8444 77.9768 15.0333 76.899 15.2L75.0212 15.5C73.9435 15.6667 73.299 16.7333 73.4657 17.8111L73.7546 19.6L73.7324 19.5778ZM72.5324 26.8444C70.6324 27.1444 69.7101 26.4778 69.4101 24.5778C69.1101 22.6778 69.7768 21.7556 71.6768 21.4556C73.5768 21.1556 74.499 21.8222 74.799 23.7222C75.099 25.6222 74.4324 26.5444 72.5324 26.8444ZM11.3768 22.9778L12.3768 29.3H12.3101C11.4657 27.0333 9.98792 25.7778 7.23236 26.2111L6.75458 26.2889C3.42125 26.8222 1.82125 29.4778 2.51014 33.8L2.91014 36.3444C3.59903 40.7222 5.76569 42.8556 9.09903 42.3333L9.61014 42.2556C12.2435 41.8333 13.3546 40 13.6657 37.8333H13.7324L13.999 39.5333C14.1657 40.6111 15.1101 41.3778 16.1879 41.2111L18.0657 40.9111C19.1435 40.7333 19.799 39.7222 19.6212 38.6444L16.999 22.1C16.8101 20.8889 15.8435 20.1333 14.6657 20.3222L13.0768 20.5778C11.899 20.7667 11.1879 21.7889 11.3768 23V22.9778ZM8.03236 34.2889C8.33236 36.1889 9.25458 36.8667 11.1546 36.5556C13.0546 36.2556 13.7324 35.3333 13.4212 33.4333C13.1212 31.5333 12.199 30.8556 10.299 31.1667C8.39903 31.4667 7.72125 32.3889 8.03236 34.2889ZM19.7324 31.4222L20.0435 33.3889C20.7212 37.6778 23.8879 39.9667 28.4879 39.2444L29.8212 39.0333C34.4212 38.3 36.7212 35.1444 36.0435 30.8556L35.7324 28.8889C35.0546 24.6 31.8879 22.3111 27.2879 23.0333L25.9546 23.2444C21.3546 23.9778 19.0546 27.1333 19.7324 31.4222ZM28.3212 33.8333C26.4212 34.1333 25.499 33.4667 25.199 31.5667C24.899 29.6667 25.5657 28.7444 27.4657 28.4444C29.3657 28.1444 30.2879 28.8111 30.5879 30.7111C30.8879 32.6111 30.2212 33.5333 28.3212 33.8333ZM36.2546 25.9667C36.6435 28.3889 38.5213 29.2667 41.3768 29.4667C42.7879 29.5667 44.1768 29.6667 44.0879 30.6444C44.0435 31.1222 43.7546 31.3778 43.1435 31.4778L39.6435 32.0222C38.2768 32.2333 37.6879 33.2111 37.8546 34.2667L38.0879 35.7667C38.2546 36.8222 39.1212 37.5667 40.4879 37.3444L43.499 36.8667L45.9212 36.4889C49.5768 35.9111 51.499 34.0778 51.0546 31.2889C50.6657 28.8667 48.7546 27.9889 45.9212 27.7889C44.5101 27.6889 43.1324 27.5778 43.2101 26.6111C43.2546 26.1333 43.5435 25.8778 44.1546 25.7778L47.2879 25.2889C48.6546 25.0778 49.2435 24.1 49.0768 23.0444L48.8435 21.5444C48.6768 20.4889 47.8101 19.7444 46.4435 19.9667L43.799 20.3889L41.3768 20.7667C37.7213 21.3444 35.799 23.1778 36.2435 25.9667H36.2546ZM41.9879 42.1222C43.0213 41.9556 43.999 42.7222 44.1657 43.8L44.5768 46.4222L46.6657 46.0889C47.8435 45.9 48.7657 46.6333 48.9324 47.6778L49.1768 49.2111C49.3435 50.2556 48.7435 51.2333 47.3879 51.4444L45.4324 51.7556L45.899 54.7889C46.199 56.4 46.4879 57.0889 48.2435 56.8111C49.4212 56.6222 50.4546 57.2333 50.6324 58.3111L50.899 59.9111C51.0657 60.9889 50.3101 61.9111 49.099 62.1111L46.7768 62.4778C43.4435 63 41.2879 60.8778 40.5879 56.4889L39.9546 52.6222L39.2101 52.7444C37.8435 52.9556 36.9768 52.2222 36.8101 51.1667L36.5657 49.6333C36.399 48.5889 37.0546 47.6 38.2324 47.4222L39.099 47.2889L38.6879 44.6667C38.5212 43.5889 39.2546 42.5556 40.3101 42.3889L41.9879 42.1222ZM60.4212 47.8222H60.4879L60.199 46.0222C60.0324 44.9444 60.6768 43.8778 61.7546 43.7111L63.6324 43.4111C64.7101 43.2444 65.6546 44.0556 65.8213 45.1333L67.7101 57.0778C67.8768 58.1556 67.2324 59.1778 66.1546 59.3444L64.2768 59.6444C63.199 59.8111 62.2657 59.0556 62.0879 57.9667L61.8212 56.3111H61.7546C61.4435 58.4889 60.3324 60.3222 57.699 60.7333L57.1879 60.8111C53.8546 61.3444 51.699 59.2111 50.999 54.8222L50.599 52.2778C49.9101 47.9556 51.5101 45.3 54.8435 44.7667L55.3213 44.6889C58.0879 44.2556 59.5546 45.5111 60.399 47.7889L60.4212 47.8222ZM56.1657 52.8111C56.4657 54.7111 57.3879 55.3889 59.2879 55.0778C61.1879 54.7778 61.8657 53.8556 61.5546 51.9556C61.2546 50.0556 60.3324 49.3778 58.4324 49.6889C56.5324 50 55.8546 50.9111 56.1657 52.8111ZM19.399 49.2222C20.4768 49.0556 21.1324 48.0333 20.9546 46.9556L20.7101 45.4C20.5212 44.1889 19.8101 43.3889 18.6435 43.5778L17.0546 43.8333C15.8768 44.0222 14.899 45.0889 15.0879 46.2889L15.3324 47.8444C15.499 48.9222 16.4324 49.6889 17.5212 49.5222L19.399 49.2222ZM21.799 52.2444L23.6768 64.1111C23.8435 65.1889 23.199 66.2111 22.1212 66.3778L20.2435 66.6778C19.1657 66.8444 18.2324 66.0778 18.0546 65L16.1768 53.1333C15.9879 51.9222 16.6657 50.9 17.8435 50.7222L19.4324 50.4667C20.6101 50.2778 21.6101 51.0333 21.799 52.2444ZM-0.945416 56.1556C-1.50097 55.1111 -1.01208 53.6556 0.276806 53.4444L1.53236 53.2444C2.53236 53.0889 3.49903 52.9333 4.24347 54.3222L7.46569 60.3889C8.01014 61.4111 8.25458 62.2222 8.34347 62.8667H8.39903C8.28792 62.2222 8.26569 61.3667 8.46569 60.2333L9.65458 53.4667C9.93236 51.9111 10.899 51.7667 11.899 51.6L13.1546 51.4C14.4435 51.2 15.3657 52.4333 15.1546 53.6L15.0546 54.2889L13.1879 64.8778C12.8657 66.8333 11.699 68.0333 9.74347 68.3444L8.74347 68.5C6.78792 68.8111 5.31014 68.0222 4.38792 66.2667L-0.945416 56.1556ZM23.0324 54.2C23.4212 56.6222 25.299 57.5 28.1546 57.7C29.5657 57.8 30.9546 57.9 30.8657 58.8778C30.8212 59.3556 30.5324 59.6111 29.9212 59.7111L26.4212 60.2556C25.0546 60.4667 24.4657 61.4444 24.6324 62.5L24.8657 64C25.0324 65.0556 25.899 65.8 27.2657 65.5778L30.2768 65.1L32.699 64.7222C36.3546 64.1444 38.2768 62.3111 37.8324 59.5222C37.4435 57.1 35.5324 56.2222 32.699 56.0222C31.2879 55.9222 29.9101 55.8111 29.9879 54.8444C30.0324 54.3667 30.3212 54.1111 30.9324 54.0111L34.0657 53.5222C35.4324 53.3111 36.0213 52.3333 35.8546 51.2778L35.6213 49.7778C35.4546 48.7222 34.5879 47.9778 33.2212 48.2L30.5768 48.6222L28.1546 49C24.499 49.5778 22.5768 51.4111 23.0212 54.2H23.0324Z" fill="white"/>
</g>
</g>
<defs>
<clipPath id="clip0_9179_21144">
<rect width="80" height="80" fill="white"/>
</clipPath>
</defs>
</svg>
